CascadiaNext-CondensedBold.ufo
<glyph name="exclam" format="2">
  <advance width="600"/>
  <unicode hex="0021"/>
  <outline>
    <contour>
      <point x="199" y="556" type="line"/>
      <point x="397" y="556" type="line"/>
      <point x="434" y="1430" type="line"/>
      <point x="166" y="1430" type="line"/>
    </contour>
    <component base="period"/>
  </outline>
</glyph>
<glyph name="numbersign" format="2">
  <advance width="600"/>
  <unicode hex="0023"/>
  <outline>
    <contour>
      <point x="296" y="0" type="line"/>
      <point x="478" y="0" type="line"/>
      <point x="539" y="1420" type="line"/>
      <point x="358" y="1420" type="line"/>
      <point x="340" y="1013" type="line"/>
      <point x="357" y="946" type="line"/>
      <point x="336" y="459" type="line"/>
      <point x="314" y="409" type="line"/>
    </contour>
    <contour>
      <point x="3" y="310" type="line"/>
      <point x="597" y="310" type="line"/>
      <point x="597" y="530" type="line"/>
      <point x="3" y="530" type="line"/>
    </contour>
    <contour>
      <point x="61" y="0" type="line"/>
      <point x="242" y="0" type="line"/>
      <point x="260" y="413" type="line"/>
      <point x="242" y="453" type="line"/>
      <point x="264" y="976" type="line"/>
      <point x="286" y="1016" type="line"/>
      <point x="304" y="1420" type="line"/>
      <point x="122" y="1420" type="line"/>
    </contour>
    <contour>
      <point x="3" y="890" type="line"/>
      <point x="597" y="890" type="line"/>
      <point x="597" y="1110" type="line"/>
      <point x="3" y="1110" type="line"/>
    </contour>
  </outline>
</glyph>
<glyph name="dollar" format="2">
  <advance width="600"/>
  <unicode hex="0024"/>
  <anchor x="305" y="0" name="bottom"/>
  <anchor x="309" y="1420" name="top"/>
  <outline>
    <contour>
      <point x="192" y="-320" type="line"/>
      <point x="397" y="-320" type="line"/>
      <point x="397" y="1740" type="line"/>
      <point x="192" y="1740" type="line"/>
    </contour>
    <component base="S"/>
  </outline>
</glyph>
<glyph name="percent" format="2">
  <advance width="600"/>
  <unicode hex="0025"/>
  <outline>
    <contour>
      <point x="69" y="527" type="line"/>
      <point x="589" y="677" type="line"/>
      <point x="528" y="890" type="line"/>
      <point x="11" y="746" type="line"/>
    </contour>
    <contour>
      <point x="256" y="856" type="curve" smooth="yes"/>
      <point x="411" y="855"/>
      <point x="502" y="964"/>
      <point x="502" y="1148" type="curve" smooth="yes"/>
      <point x="502" y="1332"/>
      <point x="411" y="1440"/>
      <point x="256" y="1440" type="curve" smooth="yes"/>
      <point x="101" y="1440"/>
      <point x="10" y="1332"/>
      <point x="10" y="1148" type="curve" smooth="yes"/>
      <point x="10" y="963"/>
      <point x="101" y="855"/>
    </contour>
    <contour>
      <point x="256" y="1046" type="curve" smooth="yes"/>
      <point x="222" y="1046"/>
      <point x="202" y="1084"/>
      <point x="202" y="1148" type="curve" smooth="yes"/>
      <point x="202" y="1212"/>
      <point x="222" y="1250"/>
      <point x="256" y="1250" type="curve" smooth="yes"/>
      <point x="290" y="1250"/>
      <point x="310" y="1212"/>
      <point x="310" y="1148" type="curve" smooth="yes"/>
      <point x="310" y="1084"/>
      <point x="290" y="1046"/>
    </contour>
    <contour>
      <point x="344" y="-20" type="curve" smooth="yes"/>
      <point x="499" y="-21"/>
      <point x="590" y="88"/>
      <point x="590" y="272" type="curve" smooth="yes"/>
      <point x="590" y="456"/>
      <point x="499" y="564"/>
      <point x="344" y="564" type="curve" smooth="yes"/>
      <point x="189" y="564"/>
      <point x="98" y="456"/>
      <point x="98" y="272" type="curve" smooth="yes"/>
      <point x="98" y="87"/>
      <point x="189" y="-21"/>
    </contour>
    <contour>
      <point x="344" y="170" type="curve" smooth="yes"/>
      <point x="310" y="170"/>
      <point x="290" y="208"/>
      <point x="290" y="272" type="curve" smooth="yes"/>
      <point x="290" y="336"/>
      <point x="310" y="374"/>
      <point x="344" y="374" type="curve" smooth="yes"/>
      <point x="378" y="374"/>
      <point x="398" y="336"/>
      <point x="398" y="272" type="curve" smooth="yes"/>
      <point x="398" y="208"/>
      <point x="378" y="170"/>
    </contour>
  </outline>
</glyph>
<glyph name="ampersand" format="2">
  <advance width="600"/>
  <unicode hex="0026"/>
  <outline>
    <contour>
      <point x="374" y="0" type="line"/>
      <point x="600" y="0" type="line"/>
      <point x="283" y="994" type="line" smooth="yes"/>
      <point x="264" y="1052"/>
      <point x="251" y="1096"/>
      <point x="251" y="1151" type="curve" smooth="yes"/>
      <point x="251" y="1194"/>
      <point x="265" y="1220"/>
      <point x="288" y="1220" type="curve"/>
      <point x="296" y="1440" type="line"/>
      <point x="135" y="1440"/>
      <point x="41" y="1333"/>
      <point x="41" y="1153" type="curve" smooth="yes"/>
      <point x="41" y="1057"/>
      <point x="56" y="993"/>
      <point x="79" y="922" type="curve" smooth="yes"/>
      <point x="190" y="574" type="line"/>
      <point x="210" y="603" type="line"/>
      <point x="338" y="232" type="line"/>
      <point x="329" y="140" type="line"/>
    </contour>
    <contour>
      <point x="183" y="-20" type="curve" smooth="yes"/>
      <point x="266" y="-20"/>
      <point x="322" y="53"/>
      <point x="352" y="198" type="curve"/>
      <point x="367" y="359" type="line"/>
      <point x="349" y="261"/>
      <point x="318" y="211"/>
      <point x="275" y="211" type="curve" smooth="yes"/>
      <point x="238" y="211"/>
      <point x="218" y="246"/>
      <point x="218" y="313" type="curve" smooth="yes"/>
      <point x="218" y="407"/>
      <point x="253" y="510"/>
      <point x="307" y="595" type="curve"/>
      <point x="229" y="708" type="line"/>
      <point x="93" y="619"/>
      <point x="3" y="458"/>
      <point x="3" y="283" type="curve" smooth="yes"/>
      <point x="3" y="84"/>
      <point x="65" y="-20"/>
    </contour>
    <contour>
      <point x="474" y="337" type="line"/>
      <point x="558" y="473"/>
      <point x="600" y="684"/>
      <point x="600" y="966" type="curve"/>
      <point x="395" y="966" type="line"/>
      <point x="415" y="788"/>
      <point x="421" y="645"/>
      <point x="417" y="539" type="curve"/>
    </contour>
    <contour>
      <point x="343" y="1122" type="curve"/>
      <point x="548" y="1122" type="line"/>
      <point x="548" y="1322"/>
      <point x="455" y="1440"/>
      <point x="296" y="1440" type="curve"/>
      <point x="288" y="1220" type="line"/>
      <point x="322" y="1220"/>
      <point x="343" y="1183"/>
    </contour>
  </outline>
</glyph>
<glyph name="quotesingle" format="2">
  <advance width="600"/>
  <unicode hex="0027"/>
  <outline>
    <contour>
      <point x="219" y="780" type="line"/>
      <point x="381" y="780" type="line"/>
      <point x="418" y="1420" type="line"/>
      <point x="182" y="1420" type="line"/>
    </contour>
  </outline>
</glyph>
<glyph name="parenleft" format="2">
  <advance width="600"/>
  <unicode hex="0028"/>
  <outline>
    <contour>
      <point x="522" y="-200" type="curve" smooth="yes"/>
      <point x="540" y="-200" type="line"/>
      <point x="540" y="19" type="line"/>
      <point x="522" y="19" type="line" smooth="yes"/>
      <point x="374" y="19"/>
      <point x="315" y="216"/>
      <point x="315" y="710" type="curve" smooth="yes"/>
      <point x="315" y="1203"/>
      <point x="374" y="1400"/>
      <point x="522" y="1400" type="curve" smooth="yes"/>
      <point x="540" y="1400" type="line"/>
      <point x="540" y="1620" type="line"/>
      <point x="522" y="1620" type="line" smooth="yes"/>
      <point x="228" y="1620"/>
      <point x="110" y="1360"/>
      <point x="110" y="711" type="curve" smooth="yes"/>
      <point x="110" y="60"/>
      <point x="228" y="-200"/>
    </contour>
  </outline>
</glyph>
<glyph name="parenright" format="2">
  <advance width="600"/>
  <unicode hex="0029"/>
  <outline>
    <contour>
      <point x="60" y="-200" type="line"/>
      <point x="78" y="-200" type="line" smooth="yes"/>
      <point x="372" y="-200"/>
      <point x="490" y="60"/>
      <point x="490" y="711" type="curve" smooth="yes"/>
      <point x="490" y="1360"/>
      <point x="372" y="1620"/>
      <point x="78" y="1620" type="curve" smooth="yes"/>
      <point x="60" y="1620" type="line"/>
      <point x="60" y="1400" type="line"/>
      <point x="78" y="1400" type="line" smooth="yes"/>
      <point x="226" y="1400"/>
      <point x="285" y="1203"/>
      <point x="285" y="710" type="curve" smooth="yes"/>
      <point x="285" y="216"/>
      <point x="226" y="19"/>
      <point x="78" y="19" type="curve" smooth="yes"/>
      <point x="60" y="19" type="line"/>
    </contour>
  </outline>
</glyph>
<glyph name="asterisk" format="2">
  <advance width="600"/>
  <unicode hex="002A"/>
  <outline>
    <contour>
      <point x="406" y="232" type="line"/>
      <point x="588" y="317" type="line"/>
      <point x="373" y="680" type="line"/>
      <point x="255" y="622" type="line"/>
    </contour>
    <contour>
      <point x="192" y="232" type="line"/>
      <point x="353" y="622" type="line"/>
      <point x="235" y="680" type="line"/>
      <point x="10" y="317" type="line"/>
    </contour>
    <contour>
      <point x="306" y="595" type="line"/>
      <point x="309" y="751" type="line"/>
      <point x="52" y="904" type="line"/>
      <point x="0" y="679" type="line"/>
    </contour>
    <contour>
      <point x="234" y="696" type="line"/>
      <point x="374" y="696" type="line"/>
      <point x="403" y="1176" type="line"/>
      <point x="205" y="1176" type="line"/>
    </contour>
    <contour>
      <point x="300" y="595" type="line"/>
      <point x="600" y="679" type="line"/>
      <point x="547" y="904" type="line"/>
      <point x="297" y="749" type="line"/>
    </contour>
  </outline>
</glyph>
<glyph name="plus" format="2">
  <advance width="600"/>
  <unicode hex="002B"/>
  <outline>
    <contour>
      <point x="198" y="190" type="line"/>
      <point x="402" y="190" type="line"/>
      <point x="402" y="1228" type="line"/>
      <point x="198" y="1228" type="line"/>
    </contour>
    <contour>
      <point x="40" y="599" type="line"/>
      <point x="560" y="599" type="line"/>
      <point x="560" y="819" type="line"/>
      <point x="40" y="819" type="line"/>
    </contour>
  </outline>
</glyph>
<glyph name="comma" format="2">
  <advance width="600"/>
  <unicode hex="002C"/>
  <outline>
    <contour>
      <point x="139" y="-436" type="line"/>
      <point x="337" y="-436" type="line"/>
      <point x="457" y="254" type="line"/>
      <point x="219" y="254" type="line"/>
    </contour>
  </outline>
</glyph>
<glyph name="period" format="2">
  <advance width="600"/>
  <unicode hex="002E"/>
  <outline>
    <contour>
      <point x="300" y="-20" type="curve" smooth="yes"/>
      <point x="401" y="-20"/>
      <point x="482" y="62"/>
      <point x="482" y="162" type="curve" smooth="yes"/>
      <point x="482" y="263"/>
      <point x="401" y="344"/>
      <point x="300" y="344" type="curve" smooth="yes"/>
      <point x="199" y="344"/>
      <point x="118" y="263"/>
      <point x="118" y="162" type="curve" smooth="yes"/>
      <point x="118" y="62"/>
      <point x="199" y="-20"/>
    </contour>
  </outline>
</glyph>
<glyph name="slash" format="2">
  <advance width="600"/>
  <unicode hex="002F"/>
  <outline>
    <contour>
      <point x="3" y="-190" type="line"/>
      <point x="203" y="-190" type="line"/>
      <point x="573" y="1610" type="line"/>
      <point x="373" y="1610" type="line"/>
    </contour>
  </outline>
</glyph>
<glyph name="zero" format="2">
  <advance width="600"/>
  <unicode hex="0030"/>
  <outline>
    <contour>
      <point x="300" y="-20" type="curve" smooth="yes"/>
      <point x="488" y="-20"/>
      <point x="574" y="206"/>
      <point x="574" y="700" type="curve" smooth="yes"/>
      <point x="574" y="1207"/>
      <point x="488" y="1440"/>
      <point x="300" y="1440" type="curve" smooth="yes"/>
      <point x="112" y="1440"/>
      <point x="26" y="1207"/>
      <point x="26" y="700" type="curve" smooth="yes"/>
      <point x="26" y="206"/>
      <point x="112" y="-20"/>
    </contour>
    <contour>
      <point x="300" y="489" type="curve" smooth="yes"/>
      <point x="354" y="489"/>
      <point x="379" y="555"/>
      <point x="379" y="700" type="curve" smooth="yes"/>
      <point x="379" y="845"/>
      <point x="354" y="911"/>
      <point x="300" y="911" type="curve" smooth="yes"/>
      <point x="246" y="911"/>
      <point x="221" y="845"/>
      <point x="221" y="700" type="curve" smooth="yes"/>
      <point x="221" y="555"/>
      <point x="246" y="489"/>
    </contour>
    <contour>
      <point x="300" y="201" type="curve" smooth="yes"/>
      <point x="227" y="201"/>
      <point x="194" y="358"/>
      <point x="194" y="700" type="curve" smooth="yes"/>
      <point x="194" y="1057"/>
      <point x="227" y="1220"/>
      <point x="300" y="1220" type="curve" smooth="yes"/>
      <point x="373" y="1220"/>
      <point x="406" y="1057"/>
      <point x="406" y="700" type="curve" smooth="yes"/>
      <point x="406" y="358"/>
      <point x="373" y="201"/>
    </contour>
  </outline>
</glyph>
<glyph name="one" format="2">
  <advance width="600"/>
  <unicode hex="0031"/>
  <outline>
    <contour>
      <point x="216" y="0" type="line"/>
      <point x="421" y="0" type="line"/>
      <point x="421" y="1420" type="line"/>
      <point x="216" y="1420" type="line"/>
    </contour>
    <contour>
      <point x="77" y="0" type="line"/>
      <point x="225" y="0" type="line"/>
      <point x="225" y="220" type="line"/>
      <point x="77" y="220" type="line"/>
    </contour>
    <contour>
      <point x="413" y="0" type="line"/>
      <point x="523" y="0" type="line"/>
      <point x="523" y="220" type="line"/>
      <point x="413" y="220" type="line"/>
    </contour>
    <contour>
      <point x="86" y="1038" type="line"/>
      <point x="216" y="1154" type="line"/>
      <point x="216" y="1420" type="line"/>
      <point x="86" y="1300" type="line"/>
    </contour>
  </outline>
</glyph>
<glyph name="two" format="2">
  <advance width="600"/>
  <unicode hex="0032"/>
  <outline>
    <contour>
      <point x="57" y="0" type="line"/>
      <point x="268" y="0" type="line"/>
      <point x="268" y="231" type="line"/>
      <point x="437" y="579"/>
      <point x="554" y="875"/>
      <point x="554" y="1093" type="curve" smooth="yes"/>
      <point x="554" y="1331"/>
      <point x="478" y="1440"/>
      <point x="310" y="1440" type="curve" smooth="yes"/>
      <point x="186" y="1440"/>
      <point x="96" y="1394"/>
      <point x="25" y="1292" type="curve"/>
      <point x="149" y="1123" type="line"/>
      <point x="182" y="1182"/>
      <point x="218" y="1209"/>
      <point x="264" y="1209" type="curve" smooth="yes"/>
      <point x="320" y="1209"/>
      <point x="344" y="1170"/>
      <point x="344" y="1083" type="curve" smooth="yes"/>
      <point x="344" y="891"/>
      <point x="245" y="598"/>
      <point x="57" y="233" type="curve"/>
    </contour>
    <contour>
      <point x="85" y="0" type="line"/>
      <point x="557" y="0" type="line"/>
      <point x="557" y="221" type="line"/>
      <point x="85" y="221" type="line"/>
    </contour>
  </outline>
</glyph>
<glyph name="three" format="2">
  <advance width="600"/>
  <unicode hex="0033"/>
  <outline>
    <contour>
      <point x="233" y="-20" type="curve" smooth="yes"/>
      <point x="426" y="-20"/>
      <point x="535" y="127"/>
      <point x="535" y="380" type="curve" smooth="yes"/>
      <point x="535" y="565"/>
      <point x="451" y="710"/>
      <point x="322" y="733" type="curve" smooth="yes"/>
      <point x="134" y="825" type="line"/>
      <point x="143" y="605" type="line"/>
      <point x="178" y="605" type="line" smooth="yes"/>
      <point x="269" y="605"/>
      <point x="325" y="520"/>
      <point x="325" y="390" type="curve" smooth="yes"/>
      <point x="325" y="275"/>
      <point x="279" y="209"/>
      <point x="199" y="209" type="curve" smooth="yes"/>
      <point x="142" y="209"/>
      <point x="109" y="223"/>
      <point x="77" y="234" type="curve"/>
      <point x="69" y="8" type="line"/>
      <point x="115" y="-10"/>
      <point x="170" y="-20"/>
    </contour>
    <contour>
      <point x="143" y="605" type="line"/>
      <point x="330" y="680" type="line"/>
      <point x="330" y="745" type="line"/>
      <point x="446" y="807"/>
      <point x="522" y="929"/>
      <point x="522" y="1122" type="curve" smooth="yes"/>
      <point x="522" y="1324"/>
      <point x="431" y="1440"/>
      <point x="271" y="1440" type="curve" smooth="yes"/>
      <point x="182" y="1440"/>
      <point x="114" y="1423"/>
      <point x="58" y="1377" type="curve"/>
      <point x="113" y="1176" type="line"/>
      <point x="143" y="1201"/>
      <point x="173" y="1210"/>
      <point x="204" y="1210" type="curve" smooth="yes"/>
      <point x="272" y="1210"/>
      <point x="312" y="1160"/>
      <point x="312" y="1072" type="curve" smooth="yes"/>
      <point x="312" y="946"/>
      <point x="249" y="850"/>
      <point x="134" y="825" type="curve"/>
    </contour>
  </outline>
</glyph>
<glyph name="four" format="2">
  <advance width="600"/>
  <unicode hex="0034"/>
  <outline>
    <contour>
      <point x="28" y="286" type="line"/>
      <point x="237" y="286" type="line"/>
      <point x="281" y="1340" type="line"/>
      <point x="71" y="1340" type="line"/>
    </contour>
    <contour>
      <point x="29" y="286" type="line"/>
      <point x="346" y="286" type="line"/>
      <point x="346" y="506" type="line"/>
      <point x="105" y="506" type="line"/>
    </contour>
    <contour>
      <point x="530" y="286" type="line"/>
      <point x="598" y="286" type="line"/>
      <point x="598" y="506" type="line"/>
      <point x="530" y="506" type="line"/>
    </contour>
    <contour>
      <point x="335" y="0" type="line"/>
      <point x="540" y="0" type="line"/>
      <point x="540" y="1420" type="line"/>
      <point x="335" y="1420" type="line"/>
    </contour>
  </outline>
</glyph>
<glyph name="five" format="2">
  <advance width="600"/>
  <unicode hex="0035"/>
  <outline>
    <contour>
      <point x="293" y="-20" type="curve" smooth="yes"/>
      <point x="487" y="-20"/>
      <point x="564" y="119"/>
      <point x="564" y="466" type="curve" smooth="yes"/>
      <point x="564" y="795"/>
      <point x="515" y="926"/>
      <point x="394" y="926" type="curve" smooth="yes"/>
      <point x="359" y="926"/>
      <point x="312" y="891"/>
      <point x="293" y="827" type="curve"/>
      <point x="254" y="827" type="line"/>
      <point x="236" y="618" type="line"/>
      <point x="249" y="666"/>
      <point x="279" y="675"/>
      <point x="297" y="675" type="curve" smooth="yes"/>
      <point x="343" y="675"/>
      <point x="359" y="621"/>
      <point x="359" y="466" type="curve" smooth="yes"/>
      <point x="359" y="283"/>
      <point x="342" y="210"/>
      <point x="301" y="210" type="curve" smooth="yes"/>
      <point x="267" y="210"/>
      <point x="253" y="273"/>
      <point x="253" y="431" type="curve"/>
      <point x="48" y="431" type="line"/>
      <point x="48" y="109"/>
      <point x="118" y="-20"/>
    </contour>
    <contour>
      <point x="79" y="618" type="line"/>
      <point x="236" y="618" type="line"/>
      <point x="274" y="804" type="line"/>
      <point x="295" y="1420" type="line"/>
      <point x="100" y="1420" type="line"/>
    </contour>
    <contour>
      <point x="169" y="1200" type="line"/>
      <point x="520" y="1200" type="line"/>
      <point x="520" y="1420" type="line"/>
      <point x="160" y="1420" type="line"/>
    </contour>
  </outline>
</glyph>
<glyph name="six" format="2">
  <advance width="600"/>
  <unicode hex="0036"/>
  <outline>
    <contour>
      <point x="300" y="-20" type="curve" smooth="yes"/>
      <point x="469" y="-20"/>
      <point x="570" y="152"/>
      <point x="570" y="448" type="curve" smooth="yes"/>
      <point x="570" y="736"/>
      <point x="507" y="900"/>
      <point x="396" y="900" type="curve" smooth="yes"/>
      <point x="324" y="900"/>
      <point x="273" y="821"/>
      <point x="257" y="688" type="curve"/>
      <point x="211" y="688" type="line"/>
      <point x="30" y="486" type="line"/>
      <point x="30" y="168"/>
      <point x="135" y="-20"/>
    </contour>
    <contour>
      <point x="298" y="210" type="curve" smooth="yes"/>
      <point x="261" y="210"/>
      <point x="240" y="294"/>
      <point x="240" y="435" type="curve" smooth="yes"/>
      <point x="240" y="584"/>
      <point x="262" y="670"/>
      <point x="299" y="670" type="curve" smooth="yes"/>
      <point x="338" y="670"/>
      <point x="360" y="590"/>
      <point x="360" y="448" type="curve" smooth="yes"/>
      <point x="360" y="297"/>
      <point x="336" y="210"/>
    </contour>
    <contour>
      <point x="30" y="486" type="line"/>
      <point x="239" y="584" type="line"/>
      <point x="239" y="686" type="line"/>
      <point x="239" y="1009"/>
      <point x="330" y="1175"/>
      <point x="519" y="1192" type="curve"/>
      <point x="506" y="1426" type="line"/>
      <point x="186" y="1398"/>
      <point x="30" y="1120"/>
      <point x="30" y="581" type="curve" smooth="yes"/>
    </contour>
  </outline>
</glyph>
<glyph name="seven" format="2">
  <advance width="600"/>
  <unicode hex="0037"/>
  <outline>
    <contour>
      <point x="227" y="0" type="line"/>
      <point x="432" y="0" type="line"/>
      <point x="582" y="1420" type="line"/>
      <point x="382" y="1420" type="line"/>
    </contour>
    <contour>
      <point x="26" y="872" type="line"/>
      <point x="231" y="872" type="line"/>
      <point x="231" y="1390" type="line"/>
      <point x="26" y="1390" type="line"/>
    </contour>
    <contour>
      <point x="26" y="1200" type="line"/>
      <point x="468" y="1200" type="line"/>
      <point x="582" y="1420" type="line"/>
      <point x="26" y="1420" type="line"/>
    </contour>
  </outline>
</glyph>
<glyph name="eight" format="2">
  <advance width="600"/>
  <unicode hex="0038"/>
  <outline>
    <contour>
      <point x="300" y="-20" type="curve" smooth="yes"/>
      <point x="477" y="-20"/>
      <point x="570" y="121"/>
      <point x="570" y="390" type="curve" smooth="yes"/>
      <point x="570" y="628"/>
      <point x="472" y="764"/>
      <point x="300" y="764" type="curve" smooth="yes"/>
      <point x="128" y="764"/>
      <point x="30" y="628"/>
      <point x="30" y="390" type="curve" smooth="yes"/>
      <point x="30" y="121"/>
      <point x="123" y="-20"/>
    </contour>
    <contour>
      <point x="300" y="210" type="curve" smooth="yes"/>
      <point x="257" y="210"/>
      <point x="235" y="282"/>
      <point x="235" y="419" type="curve" smooth="yes"/>
      <point x="235" y="561"/>
      <point x="258" y="645"/>
      <point x="300" y="645" type="curve" smooth="yes"/>
      <point x="342" y="645"/>
      <point x="365" y="561"/>
      <point x="365" y="419" type="curve" smooth="yes"/>
      <point x="365" y="282"/>
      <point x="343" y="210"/>
    </contour>
    <contour>
      <point x="218" y="706" type="line"/>
      <point x="383" y="706" type="line"/>
      <point x="383" y="808" type="line"/>
      <point x="218" y="808" type="line"/>
    </contour>
    <contour>
      <point x="300" y="855" type="curve" smooth="yes"/>
      <point x="271" y="855"/>
      <point x="255" y="923"/>
      <point x="255" y="1038" type="curve" smooth="yes"/>
      <point x="255" y="1152"/>
      <point x="270" y="1211"/>
      <point x="300" y="1211" type="curve" smooth="yes"/>
      <point x="330" y="1211"/>
      <point x="345" y="1152"/>
      <point x="345" y="1038" type="curve" smooth="yes"/>
      <point x="345" y="923"/>
      <point x="329" y="855"/>
    </contour>
    <contour>
      <point x="300" y="746" type="curve" smooth="yes"/>
      <point x="459" y="746"/>
      <point x="550" y="868"/>
      <point x="550" y="1080" type="curve" smooth="yes"/>
      <point x="550" y="1317"/>
      <point x="464" y="1440"/>
      <point x="300" y="1440" type="curve" smooth="yes"/>
      <point x="136" y="1440"/>
      <point x="50" y="1317"/>
      <point x="50" y="1080" type="curve" smooth="yes"/>
      <point x="50" y="868"/>
      <point x="141" y="746"/>
    </contour>
  </outline>
</glyph>
<glyph name="nine" format="2">
  <advance width="600"/>
  <unicode hex="0039"/>
  <outline>
    <contour>
      <point x="204" y="506" type="curve" smooth="yes"/>
      <point x="276" y="506"/>
      <point x="327" y="585"/>
      <point x="343" y="718" type="curve"/>
      <point x="389" y="718" type="line"/>
      <point x="570" y="920" type="line"/>
      <point x="570" y="1238"/>
      <point x="465" y="1426"/>
      <point x="300" y="1426" type="curve" smooth="yes"/>
      <point x="131" y="1426"/>
      <point x="30" y="1254"/>
      <point x="30" y="958" type="curve" smooth="yes"/>
      <point x="30" y="670"/>
      <point x="93" y="506"/>
    </contour>
    <contour>
      <point x="94" y="-20" type="line"/>
      <point x="414" y="8"/>
      <point x="570" y="286"/>
      <point x="570" y="825" type="curve" smooth="yes"/>
      <point x="570" y="920" type="line"/>
      <point x="361" y="822" type="line"/>
      <point x="361" y="720" type="line"/>
      <point x="361" y="397"/>
      <point x="270" y="231"/>
      <point x="81" y="214" type="curve"/>
    </contour>
    <contour>
      <point x="301" y="736" type="curve" smooth="yes"/>
      <point x="262" y="736"/>
      <point x="240" y="816"/>
      <point x="240" y="958" type="curve" smooth="yes"/>
      <point x="240" y="1109"/>
      <point x="264" y="1196"/>
      <point x="302" y="1196" type="curve" smooth="yes"/>
      <point x="339" y="1196"/>
      <point x="360" y="1112"/>
      <point x="360" y="971" type="curve" smooth="yes"/>
      <point x="360" y="822"/>
      <point x="338" y="736"/>
    </contour>
  </outline>
</glyph>
<glyph name="less" format="2">
  <advance width="600"/>
  <unicode hex="003C"/>
  <outline>
    <contour>
      <point x="560" y="202" type="line"/>
      <point x="560" y="467" type="line"/>
      <point x="209" y="700" type="line"/>
      <point x="209" y="718" type="line"/>
      <point x="560" y="951" type="line"/>
      <point x="560" y="1216" type="line"/>
      <point x="16" y="838" type="line"/>
      <point x="16" y="580" type="line"/>
    </contour>
  </outline>
</glyph>
<glyph name="equal" format="2">
  <advance width="600"/>
  <unicode hex="003D"/>
  <outline>
    <contour>
      <point x="23" y="830" type="line"/>
      <point x="577" y="830" type="line"/>
      <point x="577" y="1050" type="line"/>
      <point x="23" y="1050" type="line"/>
    </contour>
    <contour>
      <point x="23" y="368" type="line"/>
      <point x="577" y="368" type="line"/>
      <point x="577" y="588" type="line"/>
      <point x="23" y="588" type="line"/>
    </contour>
  </outline>
</glyph>
<glyph name="greater" format="2">
  <advance width="600"/>
  <unicode hex="003E"/>
  <outline>
    <contour>
      <point x="40" y="202" type="line"/>
      <point x="584" y="580" type="line"/>
      <point x="584" y="838" type="line"/>
      <point x="40" y="1216" type="line"/>
      <point x="40" y="951" type="line"/>
      <point x="386" y="718" type="line"/>
      <point x="386" y="700" type="line"/>
      <point x="40" y="467" type="line"/>
    </contour>
  </outline>
</glyph>
<glyph name="question" format="2">
  <advance width="600"/>
  <unicode hex="003F"/>
  <outline>
    <contour>
      <point x="195" y="487" type="line"/>
      <point x="389" y="487" type="line"/>
      <point x="389" y="528" type="line" smooth="yes"/>
      <point x="389" y="680"/>
      <point x="419" y="760"/>
      <point x="443" y="829" type="curve" smooth="yes"/>
      <point x="492" y="973"/>
      <point x="535" y="1068"/>
      <point x="535" y="1183" type="curve" smooth="yes"/>
      <point x="535" y="1347"/>
      <point x="449" y="1440"/>
      <point x="299" y="1440" type="curve"/>
      <point x="258" y="1209" type="line"/>
      <point x="301" y="1209"/>
      <point x="325" y="1174"/>
      <point x="325" y="1112" type="curve" smooth="yes"/>
      <point x="325" y="1046"/>
      <point x="298" y="1003"/>
      <point x="274" y="946" type="curve" smooth="yes"/>
      <point x="226" y="832"/>
      <point x="195" y="728"/>
      <point x="195" y="563" type="curve" smooth="yes"/>
    </contour>
    <contour>
      <point x="136" y="1118" type="line"/>
      <point x="175" y="1179"/>
      <point x="223" y="1209"/>
      <point x="258" y="1209" type="curve"/>
      <point x="299" y="1440" type="line"/>
      <point x="189" y="1440"/>
      <point x="91" y="1369"/>
      <point x="23" y="1262" type="curve"/>
    </contour>
    <component base="period"/>
  </outline>
</glyph>
<glyph name="at" format="2">
  <advance width="600"/>
  <unicode hex="0040"/>
  <outline>
    <contour>
      <point x="382" y="-285" type="curve" smooth="yes"/>
      <point x="432" y="-285"/>
      <point x="467" y="-278"/>
      <point x="501" y="-260" type="curve"/>
      <point x="501" y="-21" type="line"/>
      <point x="469" y="-39"/>
      <point x="434" y="-46"/>
      <point x="382" y="-46" type="curve" smooth="yes"/>
      <point x="215" y="-46"/>
      <point x="143" y="146"/>
      <point x="143" y="598" type="curve" smooth="yes"/>
      <point x="143" y="1002"/>
      <point x="201" y="1202"/>
      <point x="318" y="1202" type="curve" smooth="yes"/>
      <point x="409" y="1202"/>
      <point x="456" y="1090"/>
      <point x="456" y="862" type="curve" smooth="yes"/>
      <point x="456" y="744"/>
      <point x="456" y="642"/>
      <point x="456" y="499" type="curve"/>
      <point x="600" y="499" type="line"/>
      <point x="600" y="644"/>
      <point x="600" y="748"/>
      <point x="600" y="868" type="curve" smooth="yes"/>
      <point x="600" y="1250"/>
      <point x="506" y="1439"/>
      <point x="318" y="1439" type="curve" smooth="yes"/>
      <point x="106" y="1439"/>
      <point x="0" y="1160"/>
      <point x="0" y="598" type="curve" smooth="yes"/>
      <point x="0" y="-21"/>
      <point x="115" y="-285"/>
    </contour>
    <contour>
      <point x="333" y="123" type="curve" smooth="yes"/>
      <point x="390" y="123"/>
      <point x="432" y="207"/>
      <point x="445" y="355" type="curve"/>
      <point x="494" y="355" type="line"/>
      <point x="494" y="832" type="line"/>
      <point x="445" y="832" type="line"/>
      <point x="428" y="980"/>
      <point x="387" y="1064"/>
      <point x="334" y="1064" type="curve" smooth="yes"/>
      <point x="257" y="1064"/>
      <point x="215" y="910"/>
      <point x="215" y="594" type="curve" smooth="yes"/>
      <point x="215" y="295"/>
      <point x="257" y="123"/>
    </contour>
    <contour>
      <point x="382" y="346" type="curve" smooth="yes"/>
      <point x="350" y="346"/>
      <point x="333" y="436"/>
      <point x="333" y="594" type="curve" smooth="yes"/>
      <point x="333" y="766"/>
      <point x="353" y="841"/>
      <point x="390" y="841" type="curve" smooth="yes"/>
      <point x="433" y="841"/>
      <point x="456" y="763"/>
      <point x="456" y="586" type="curve" smooth="yes"/>
      <point x="456" y="433"/>
      <point x="429" y="346"/>
    </contour>
    <contour>
      <point x="456" y="143" type="line"/>
      <point x="600" y="143" type="line"/>
      <point x="600" y="744" type="line"/>
      <point x="456" y="744" type="line"/>
    </contour>
  </outline>
</glyph>
<glyph name="A" format="2">
  <advance width="600"/>
  <unicode hex="0041"/>
  <anchor x="300" y="0" name="bottom"/>
  <anchor x="569" y="10" name="ogonek"/>
  <anchor x="300" y="1420" name="top"/>
  <outline>
    <contour>
      <point x="18" y="0" type="line"/>
      <point x="228" y="0" type="line"/>
      <point x="284" y="1200" type="line"/>
      <point x="316" y="1200" type="line"/>
      <point x="372" y="0" type="line"/>
      <point x="582" y="0" type="line"/>
      <point x="477" y="1420" type="line"/>
      <point x="123" y="1420" type="line"/>
    </contour>
    <contour>
      <point x="96" y="199" type="line"/>
      <point x="499" y="199" type="line"/>
      <point x="499" y="419" type="line"/>
      <point x="96" y="419" type="line"/>
    </contour>
  </outline>
</glyph>
<glyph name="B" format="2">
  <advance width="600"/>
  <unicode hex="0042"/>
  <anchor x="280" y="0" name="bottom"/>
  <anchor x="280" y="1420" name="top"/>
  <outline>
    <contour>
      <point x="237" y="0" type="line"/>
      <point x="344" y="0" type="line" smooth="yes"/>
      <point x="505" y="0"/>
      <point x="597" y="146"/>
      <point x="597" y="400" type="curve" smooth="yes"/>
      <point x="597" y="616"/>
      <point x="527" y="739"/>
      <point x="405" y="739" type="curve" smooth="yes"/>
      <point x="227" y="739" type="line"/>
      <point x="239" y="648" type="line"/>
      <point x="293" y="648" type="line" smooth="yes"/>
      <point x="352" y="648"/>
      <point x="387" y="574"/>
      <point x="387" y="447" type="curve" smooth="yes"/>
      <point x="387" y="303"/>
      <point x="352" y="220"/>
      <point x="296" y="220" type="curve" smooth="yes"/>
      <point x="237" y="220" type="line"/>
    </contour>
    <contour>
      <point x="59" y="0" type="line"/>
      <point x="264" y="0" type="line"/>
      <point x="264" y="1420" type="line"/>
      <point x="59" y="1420" type="line"/>
    </contour>
    <contour>
      <point x="184" y="698" type="line"/>
      <point x="364" y="698" type="line"/>
      <point x="364" y="796" type="line"/>
      <point x="184" y="796" type="line"/>
    </contour>
    <contour>
      <point x="237" y="761" type="line"/>
      <point x="347" y="761" type="line" smooth="yes"/>
      <point x="493" y="761"/>
      <point x="577" y="868"/>
      <point x="577" y="1058" type="curve" smooth="yes"/>
      <point x="577" y="1289"/>
      <point x="481" y="1420"/>
      <point x="311" y="1420" type="curve" smooth="yes"/>
      <point x="227" y="1420" type="line"/>
      <point x="239" y="1200" type="line"/>
      <point x="299" y="1200" type="line" smooth="yes"/>
      <point x="348" y="1200"/>
      <point x="367" y="1140"/>
      <point x="367" y="1022" type="curve" smooth="yes"/>
      <point x="367" y="909"/>
      <point x="346" y="852"/>
      <point x="293" y="852" type="curve" smooth="yes"/>
      <point x="237" y="852" type="line"/>
    </contour>
  </outline>
</glyph>
<glyph name="C" format="2">
  <advance width="600"/>
  <unicode hex="0043"/>
  <anchor x="335" y="0" name="bottom"/>
  <anchor x="351" y="1420" name="top"/>
  <outline>
    <contour>
      <point x="374" y="-20" type="curve" smooth="yes"/>
      <point x="443" y="-20"/>
      <point x="511" y="-8"/>
      <point x="577" y="17" type="curve"/>
      <point x="540" y="235" type="line"/>
      <point x="497" y="217"/>
      <point x="456" y="209"/>
      <point x="415" y="209" type="curve" smooth="yes"/>
      <point x="309" y="210"/>
      <point x="253" y="386"/>
      <point x="253" y="722" type="curve" smooth="yes"/>
      <point x="253" y="1028"/>
      <point x="292" y="1188"/>
      <point x="367" y="1188" type="curve" smooth="yes"/>
      <point x="397" y="1188"/>
      <point x="421" y="1169"/>
      <point x="443" y="1127" type="curve"/>
      <point x="597" y="1272" type="line"/>
      <point x="548" y="1387"/>
      <point x="474" y="1440"/>
      <point x="361" y="1440" type="curve" smooth="yes"/>
      <point x="139" y="1440"/>
      <point x="23" y="1190"/>
      <point x="23" y="712" type="curve" smooth="yes"/>
      <point x="23" y="231"/>
      <point x="143" y="-20"/>
    </contour>
  </outline>
</glyph>
<glyph name="D" format="2">
  <advance width="600"/>
  <unicode hex="0044"/>
  <anchor x="261" y="0" name="bottom"/>
  <anchor x="261" y="710" name="center"/>
  <anchor x="261" y="1420" name="top"/>
  <outline>
    <contour>
      <point x="246" y="0" type="line"/>
      <point x="282" y="0" type="line" smooth="yes"/>
      <point x="492" y="0"/>
      <point x="596" y="229"/>
      <point x="596" y="690" type="curve" smooth="yes"/>
      <point x="596" y="1179"/>
      <point x="492" y="1420"/>
      <point x="282" y="1420" type="curve" smooth="yes"/>
      <point x="236" y="1420" type="line"/>
      <point x="248" y="1200" type="line"/>
      <point x="282" y="1200" type="line" smooth="yes"/>
      <point x="351" y="1200"/>
      <point x="386" y="1025"/>
      <point x="386" y="690" type="curve" smooth="yes"/>
      <point x="386" y="382"/>
      <point x="351" y="220"/>
      <point x="282" y="220" type="curve" smooth="yes"/>
      <point x="246" y="220" type="line"/>
    </contour>
    <contour>
      <point x="48" y="0" type="line"/>
      <point x="253" y="0" type="line"/>
      <point x="253" y="1420" type="line"/>
      <point x="48" y="1420" type="line"/>
    </contour>
  </outline>
</glyph>
<glyph name="E" format="2">
  <advance width="600"/>
  <unicode hex="0045"/>
  <anchor x="314" y="0" name="bottom"/>
  <anchor x="530" y="10" name="ogonek"/>
  <anchor x="314" y="1420" name="top"/>
  <anchor x="21" y="1420" name="topleft"/>
  <outline>
    <contour>
      <point x="33" y="0" type="line"/>
      <point x="243" y="0" type="line"/>
      <point x="243" y="1420" type="line"/>
      <point x="33" y="1420" type="line"/>
    </contour>
    <contour>
      <point x="33" y="0" type="line"/>
      <point x="561" y="0" type="line"/>
      <point x="561" y="205" type="line"/>
      <point x="33" y="205" type="line"/>
    </contour>
    <contour>
      <point x="33" y="606" type="line"/>
      <point x="475" y="606" type="line"/>
      <point x="475" y="816" type="line"/>
      <point x="33" y="816" type="line"/>
    </contour>
    <contour>
      <point x="33" y="1215" type="line"/>
      <point x="561" y="1215" type="line"/>
      <point x="561" y="1420" type="line"/>
      <point x="33" y="1420" type="line"/>
    </contour>
  </outline>
</glyph>
<glyph name="F" format="2">
  <advance width="600"/>
  <unicode hex="0046"/>
  <anchor x="329" y="0" name="bottom"/>
  <anchor x="329" y="1420" name="top"/>
  <outline>
    <contour>
      <point x="70" y="0" type="line"/>
      <point x="275" y="0" type="line"/>
      <point x="275" y="1420" type="line"/>
      <point x="70" y="1420" type="line"/>
    </contour>
    <contour>
      <point x="70" y="542" type="line"/>
      <point x="518" y="542" type="line"/>
      <point x="518" y="762" type="line"/>
      <point x="70" y="762" type="line"/>
    </contour>
    <contour>
      <point x="70" y="1200" type="line"/>
      <point x="571" y="1200" type="line"/>
      <point x="571" y="1420" type="line"/>
      <point x="70" y="1420" type="line"/>
    </contour>
  </outline>
</glyph>
<glyph name="G" format="2">
  <advance width="600"/>
  <unicode hex="0047"/>
  <anchor x="351" y="0" name="bottom"/>
  <anchor x="341" y="1420" name="top"/>
  <outline>
    <contour>
      <point x="358" y="-20" type="curve" smooth="yes"/>
      <point x="453" y="-20"/>
      <point x="535" y="20"/>
      <point x="568" y="40" type="curve"/>
      <point x="506" y="260" type="line"/>
      <point x="474" y="241"/>
      <point x="430" y="210"/>
      <point x="371" y="210" type="curve" smooth="yes"/>
      <point x="289" y="210"/>
      <point x="256" y="356"/>
      <point x="256" y="722" type="curve" smooth="yes"/>
      <point x="256" y="1071"/>
      <point x="290" y="1210"/>
      <point x="375" y="1210" type="curve" smooth="yes"/>
      <point x="400" y="1210"/>
      <point x="421" y="1192"/>
      <point x="435" y="1165" type="curve"/>
      <point x="593" y="1274" type="line"/>
      <point x="550" y="1381"/>
      <point x="474" y="1440"/>
      <point x="369" y="1440" type="curve" smooth="yes"/>
      <point x="123" y="1440"/>
      <point x="25" y="1232"/>
      <point x="25" y="712" type="curve" smooth="yes"/>
      <point x="25" y="223"/>
      <point x="132" y="-20"/>
    </contour>
    <contour>
      <point x="378" y="40" type="line"/>
      <point x="568" y="40" type="line"/>
      <point x="568" y="735" type="line"/>
      <point x="378" y="735" type="line"/>
    </contour>
    <contour>
      <point x="309" y="515" type="line"/>
      <point x="565" y="515" type="line"/>
      <point x="565" y="735" type="line"/>
      <point x="309" y="735" type="line"/>
    </contour>
  </outline>
</glyph>
<glyph name="H" format="2">
  <advance width="600"/>
  <unicode hex="0048"/>
  <anchor x="300" y="0" name="bottom"/>
  <anchor x="300" y="710" name="center"/>
  <anchor x="300" y="1420" name="top"/>
  <anchor x="28" y="1420" name="topleft"/>
  <outline>
    <contour>
      <point x="362" y="0" type="line"/>
      <point x="567" y="0" type="line"/>
      <point x="567" y="1420" type="line"/>
      <point x="362" y="1420" type="line"/>
    </contour>
    <contour>
      <point x="33" y="0" type="line"/>
      <point x="238" y="0" type="line"/>
      <point x="238" y="1420" type="line"/>
      <point x="33" y="1420" type="line"/>
    </contour>
    <contour>
      <point x="92" y="597" type="line"/>
      <point x="510" y="597" type="line"/>
      <point x="510" y="817" type="line"/>
      <point x="92" y="817" type="line"/>
    </contour>
  </outline>
</glyph>
<glyph name="I" format="2">
  <advance width="600"/>
  <unicode hex="0049"/>
  <anchor x="300" y="0" name="bottom"/>
  <anchor x="300" y="10" name="ogonek"/>
  <anchor x="300" y="1420" name="top"/>
  <anchor x="48" y="1420" name="topleft"/>
  <outline>
    <contour>
      <point x="198" y="0" type="line"/>
      <point x="402" y="0" type="line"/>
      <point x="402" y="1420" type="line"/>
      <point x="198" y="1420" type="line"/>
    </contour>
    <contour>
      <point x="20" y="0" type="line"/>
      <point x="580" y="0" type="line"/>
      <point x="580" y="220" type="line"/>
      <point x="20" y="220" type="line"/>
    </contour>
    <contour>
      <point x="20" y="1200" type="line"/>
      <point x="580" y="1200" type="line"/>
      <point x="580" y="1420" type="line"/>
      <point x="20" y="1420" type="line"/>
    </contour>
  </outline>
</glyph>
<glyph name="J" format="2">
  <advance width="600"/>
  <unicode hex="004A"/>
  <anchor x="300" y="0" name="bottom"/>
  <anchor x="395" y="1420" name="top"/>
  <outline>
    <contour>
      <point x="292" y="-20" type="curve" smooth="yes"/>
      <point x="496" y="-20"/>
      <point x="567" y="84"/>
      <point x="567" y="383" type="curve" smooth="yes"/>
      <point x="567" y="1420" type="line"/>
      <point x="362" y="1420" type="line"/>
      <point x="362" y="383" type="line" smooth="yes"/>
      <point x="362" y="254"/>
      <point x="345" y="210"/>
      <point x="294" y="210" type="curve" smooth="yes"/>
      <point x="244" y="210"/>
      <point x="227" y="254"/>
      <point x="227" y="383" type="curve"/>
      <point x="22" y="383" type="line"/>
      <point x="22" y="84"/>
      <point x="91" y="-20"/>
    </contour>
    <contour>
      <point x="145" y="1200" type="line"/>
      <point x="480" y="1200" type="line"/>
      <point x="480" y="1420" type="line"/>
      <point x="145" y="1420" type="line"/>
    </contour>
  </outline>
</glyph>
<glyph name="K" format="2">
  <advance width="600"/>
  <unicode hex="004B"/>
  <anchor x="310" y="0" name="bottom"/>
  <anchor x="310" y="1420" name="top"/>
  <outline>
    <contour>
      <point x="205" y="472" type="line"/>
      <point x="471" y="472"/>
      <point x="577" y="743"/>
      <point x="577" y="1420" type="curve"/>
      <point x="372" y="1420" type="line"/>
      <point x="372" y="878"/>
      <point x="324" y="662"/>
      <point x="204" y="661" type="curve"/>
    </contour>
    <contour>
      <point x="387" y="0" type="line"/>
      <point x="602" y="0" type="line"/>
      <point x="441" y="731" type="line"/>
      <point x="263" y="629" type="line"/>
    </contour>
    <contour>
      <point x="46" y="0" type="line"/>
      <point x="251" y="0" type="line"/>
      <point x="251" y="1420" type="line"/>
      <point x="46" y="1420" type="line"/>
    </contour>
  </outline>
</glyph>
<glyph name="L" format="2">
  <advance width="600"/>
  <unicode hex="004C"/>
  <anchor x="309" y="0" name="bottom"/>
  <anchor x="300" y="710" name="center"/>
  <anchor x="169" y="1420" name="top"/>
  <anchor x="578" y="1420" name="topright"/>
  <outline>
    <contour>
      <point x="67" y="0" type="line"/>
      <point x="272" y="0" type="line"/>
      <point x="272" y="1420" type="line"/>
      <point x="67" y="1420" type="line"/>
    </contour>
    <contour>
      <point x="67" y="0" type="line"/>
      <point x="561" y="0" type="line"/>
      <point x="561" y="220" type="line"/>
      <point x="67" y="220" type="line"/>
    </contour>
  </outline>
</glyph>
<glyph name="M" format="2">
  <advance width="600"/>
  <unicode hex="004D"/>
  <anchor x="300" y="0" name="bottom"/>
  <anchor x="300" y="1420" name="top"/>
  <outline>
    <contour>
      <point x="247" y="497" type="line"/>
      <point x="355" y="497" type="line"/>
      <point x="379" y="1200" type="line"/>
      <point x="416" y="1200" type="line"/>
      <point x="433" y="1420" type="line"/>
      <point x="337" y="1420" type="line"/>
      <point x="310" y="675" type="line"/>
      <point x="290" y="675" type="line"/>
    </contour>
    <contour>
      <point x="21" y="0" type="line"/>
      <point x="199" y="0" type="line"/>
      <point x="199" y="1420" type="line"/>
      <point x="21" y="1420" type="line"/>
    </contour>
    <contour>
      <point x="245" y="497" type="line"/>
      <point x="298" y="497" type="line"/>
      <point x="310" y="675" type="line"/>
      <point x="290" y="675" type="line"/>
      <point x="263" y="1420" type="line"/>
      <point x="191" y="1420" type="line"/>
      <point x="168" y="1200" type="line"/>
      <point x="211" y="1200" type="line"/>
    </contour>
    <contour>
      <point x="401" y="0" type="line"/>
      <point x="579" y="0" type="line"/>
      <point x="579" y="1420" type="line"/>
      <point x="401" y="1420" type="line"/>
    </contour>
  </outline>
</glyph>
<glyph name="N" format="2">
  <advance width="600"/>
  <unicode hex="004E"/>
  <anchor x="300" y="0" name="bottom"/>
  <anchor x="300" y="1420" name="top"/>
  <outline>
    <contour>
      <point x="297" y="0" type="line"/>
      <point x="371" y="0" type="line"/>
      <point x="371" y="220" type="line"/>
      <point x="332" y="220" type="line"/>
      <point x="313" y="1420" type="line"/>
      <point x="201" y="1420" type="line"/>
      <point x="201" y="1200" type="line"/>
      <point x="268" y="1200" type="line"/>
    </contour>
    <contour>
      <point x="71" y="0" type="line"/>
      <point x="241" y="0" type="line"/>
      <point x="241" y="1420" type="line"/>
      <point x="71" y="1420" type="line"/>
    </contour>
    <contour>
      <point x="359" y="0" type="line"/>
      <point x="529" y="0" type="line"/>
      <point x="529" y="1420" type="line"/>
      <point x="359" y="1420" type="line"/>
    </contour>
  </outline>
</glyph>
<glyph name="O" format="2">
  <advance width="600"/>
  <unicode hex="004F"/>
  <anchor x="300" y="0" name="bottom"/>
  <anchor x="300" y="710" name="center"/>
  <anchor x="701" y="10" name="ogonek"/>
  <anchor x="300" y="1420" name="top"/>
  <anchor x="-9" y="1420" name="topleft"/>
  <anchor x="609" y="1420" name="topright"/>
  <outline>
    <contour>
      <point x="300" y="-20" type="curve" smooth="yes"/>
      <point x="500" y="-20"/>
      <point x="580" y="186"/>
      <point x="580" y="700" type="curve" smooth="yes"/>
      <point x="580" y="1229"/>
      <point x="500" y="1440"/>
      <point x="300" y="1440" type="curve" smooth="yes"/>
      <point x="100" y="1440"/>
      <point x="20" y="1229"/>
      <point x="20" y="700" type="curve" smooth="yes"/>
      <point x="20" y="186"/>
      <point x="100" y="-20"/>
    </contour>
    <contour>
      <point x="300" y="210" type="curve" smooth="yes"/>
      <point x="250" y="210"/>
      <point x="230" y="350"/>
      <point x="230" y="700" type="curve" smooth="yes"/>
      <point x="230" y="1064"/>
      <point x="250" y="1210"/>
      <point x="300" y="1210" type="curve" smooth="yes"/>
      <point x="350" y="1210"/>
      <point x="370" y="1064"/>
      <point x="370" y="700" type="curve" smooth="yes"/>
      <point x="370" y="350"/>
      <point x="350" y="210"/>
    </contour>
  </outline>
</glyph>
<glyph name="P" format="2">
  <advance width="600"/>
  <unicode hex="0050"/>
  <anchor x="281" y="0" name="bottom"/>
  <anchor x="283" y="1420" name="top"/>
  <outline>
    <contour>
      <point x="256" y="407" type="line"/>
      <point x="283" y="407" type="line" smooth="yes"/>
      <point x="470" y="407"/>
      <point x="577" y="601"/>
      <point x="577" y="940" type="curve" smooth="yes"/>
      <point x="577" y="1245"/>
      <point x="470" y="1420"/>
      <point x="283" y="1420" type="curve" smooth="yes"/>
      <point x="258" y="1420" type="line"/>
      <point x="258" y="1200" type="line"/>
      <point x="283" y="1200" type="line" smooth="yes"/>
      <point x="336" y="1200"/>
      <point x="367" y="1100"/>
      <point x="367" y="923" type="curve" smooth="yes"/>
      <point x="367" y="736"/>
      <point x="336" y="627"/>
      <point x="283" y="627" type="curve" smooth="yes"/>
      <point x="256" y="627" type="line"/>
    </contour>
    <contour>
      <point x="63" y="0" type="line"/>
      <point x="268" y="0" type="line"/>
      <point x="268" y="1420" type="line"/>
      <point x="63" y="1420" type="line"/>
    </contour>
  </outline>
</glyph>
<glyph name="Q" format="2">
  <advance width="600"/>
  <unicode hex="0051"/>
  <anchor x="305" y="-460" name="bottom"/>
  <anchor x="300" y="710" name="center"/>
  <anchor x="701" y="10" name="ogonek"/>
  <anchor x="300" y="1420" name="top"/>
  <anchor x="-9" y="1420" name="topleft"/>
  <anchor x="609" y="1420" name="topright"/>
  <outline>
    <contour>
      <point x="486" y="-460" type="curve" smooth="yes"/>
      <point x="528" y="-460" type="line"/>
      <point x="548" y="-240" type="line"/>
      <point x="486" y="-240" type="line" smooth="yes"/>
      <point x="427" y="-240"/>
      <point x="398" y="-198"/>
      <point x="398" y="-113" type="curve" smooth="yes"/>
      <point x="398" y="62" type="line"/>
      <point x="193" y="62" type="line"/>
      <point x="193" y="-111" type="line" smooth="yes"/>
      <point x="193" y="-344"/>
      <point x="292" y="-460"/>
    </contour>
    <component base="O"/>
  </outline>
</glyph>
<glyph name="R" format="2">
  <advance width="600"/>
  <unicode hex="0052"/>
  <anchor x="305" y="0" name="bottom"/>
  <anchor x="280" y="1420" name="top"/>
  <outline>
    <contour>
      <point x="225" y="520" type="line"/>
      <point x="282" y="520" type="line" smooth="yes"/>
      <point x="467" y="520"/>
      <point x="572" y="692"/>
      <point x="572" y="990" type="curve" smooth="yes"/>
      <point x="572" y="1264"/>
      <point x="467" y="1420"/>
      <point x="282" y="1420" type="curve" smooth="yes"/>
      <point x="215" y="1420" type="line"/>
      <point x="227" y="1177" type="line"/>
      <point x="282" y="1177" type="line" smooth="yes"/>
      <point x="332" y="1177"/>
      <point x="362" y="1102"/>
      <point x="362" y="970" type="curve" smooth="yes"/>
      <point x="362" y="839"/>
      <point x="332" y="763"/>
      <point x="282" y="763" type="curve" smooth="yes"/>
      <point x="225" y="763" type="line"/>
    </contour>
    <contour>
      <point x="43" y="0" type="line"/>
      <point x="248" y="0" type="line"/>
      <point x="248" y="1420" type="line"/>
      <point x="43" y="1420" type="line"/>
    </contour>
    <contour>
      <point x="375" y="0" type="line"/>
      <point x="599" y="0" type="line"/>
      <point x="468" y="668" type="line"/>
      <point x="274" y="668" type="line"/>
    </contour>
  </outline>
</glyph>
<glyph name="S" format="2">
  <advance width="600"/>
  <unicode hex="0053"/>
  <anchor x="305" y="0" name="bottom"/>
  <anchor x="309" y="1420" name="top"/>
  <outline>
    <contour>
      <point x="268" y="-20" type="curve" smooth="yes"/>
      <point x="447" y="-20"/>
      <point x="540" y="88"/>
      <point x="540" y="297" type="curve" smooth="yes"/>
      <point x="540" y="421"/>
      <point x="516" y="524"/>
      <point x="429" y="690" type="curve" smooth="yes"/>
      <point x="333" y="874" type="line" smooth="yes"/>
      <point x="291" y="954"/>
      <point x="262" y="1004"/>
      <point x="262" y="1101" type="curve" smooth="yes"/>
      <point x="262" y="1171"/>
      <point x="293" y="1209"/>
      <point x="351" y="1209" type="curve" smooth="yes"/>
      <point x="398" y="1209"/>
      <point x="443" y="1189"/>
      <point x="493" y="1144" type="curve"/>
      <point x="542" y="1354" type="line"/>
      <point x="465" y="1413"/>
      <point x="393" y="1440"/>
      <point x="311" y="1440" type="curve" smooth="yes"/>
      <point x="141" y="1440"/>
      <point x="52" y="1337"/>
      <point x="52" y="1140" type="curve" smooth="yes"/>
      <point x="52" y="984"/>
      <point x="76" y="885"/>
      <point x="148" y="753" type="curve" smooth="yes"/>
      <point x="250" y="565" type="line" smooth="yes"/>
      <point x="312" y="450"/>
      <point x="330" y="388"/>
      <point x="330" y="317" type="curve" smooth="yes"/>
      <point x="330" y="248"/>
      <point x="297" y="211"/>
      <point x="236" y="211" type="curve" smooth="yes"/>
      <point x="179" y="211"/>
      <point x="122" y="226"/>
      <point x="64" y="256" type="curve"/>
      <point x="55" y="18" type="line"/>
      <point x="114" y="-6"/>
      <point x="184" y="-20"/>
    </contour>
  </outline>
</glyph>
<glyph name="T" format="2">
  <advance width="600"/>
  <unicode hex="0054"/>
  <anchor x="297" y="0" name="bottom"/>
  <anchor x="300" y="710" name="center"/>
  <anchor x="300" y="1420" name="top"/>
  <outline>
    <contour>
      <point x="197" y="0" type="line"/>
      <point x="403" y="0" type="line"/>
      <point x="403" y="1420" type="line"/>
      <point x="197" y="1420" type="line"/>
    </contour>
    <contour>
      <point x="3" y="1200" type="line"/>
      <point x="597" y="1200" type="line"/>
      <point x="597" y="1420" type="line"/>
      <point x="3" y="1420" type="line"/>
    </contour>
  </outline>
</glyph>
<glyph name="U" format="2">
  <advance width="600"/>
  <unicode hex="0055"/>
  <anchor x="300" y="0" name="bottom"/>
  <anchor x="525" y="10" name="ogonek"/>
  <anchor x="300" y="1420" name="top"/>
  <anchor x="572" y="1420" name="topright"/>
  <outline>
    <contour>
      <point x="298" y="-20" type="curve" smooth="yes"/>
      <point x="482" y="-20"/>
      <point x="567" y="95"/>
      <point x="567" y="345" type="curve" smooth="yes"/>
      <point x="567" y="1420" type="line"/>
      <point x="362" y="1420" type="line"/>
      <point x="362" y="323" type="line" smooth="yes"/>
      <point x="362" y="246"/>
      <point x="342" y="211"/>
      <point x="300" y="211" type="curve" smooth="yes"/>
      <point x="261" y="211"/>
      <point x="243" y="246"/>
      <point x="243" y="321" type="curve" smooth="yes"/>
      <point x="243" y="1419" type="line"/>
      <point x="38" y="1420" type="line"/>
      <point x="38" y="345" type="line" smooth="yes"/>
      <point x="38" y="95"/>
      <point x="120" y="-20"/>
    </contour>
  </outline>
</glyph>
<glyph name="V" format="2">
  <advance width="600"/>
  <unicode hex="0056"/>
  <anchor x="300" y="0" name="bottom"/>
  <anchor x="300" y="1420" name="top"/>
  <outline>
    <contour>
      <point x="129" y="0" type="line"/>
      <point x="471" y="0" type="line"/>
      <point x="590" y="1420" type="line"/>
      <point x="388" y="1420" type="line"/>
      <point x="306" y="220" type="line"/>
      <point x="294" y="220" type="line"/>
      <point x="222" y="1420" type="line"/>
      <point x="10" y="1420" type="line"/>
    </contour>
  </outline>
</glyph>
<glyph name="W" format="2">
  <advance width="600"/>
  <unicode hex="0057"/>
  <anchor x="300" y="0" name="bottom"/>
  <anchor x="300" y="1420" name="top"/>
  <outline>
    <contour>
      <point x="35" y="0" type="line"/>
      <point x="274" y="0" type="line"/>
      <point x="297" y="802" type="line"/>
      <point x="320" y="802" type="line"/>
      <point x="347" y="1060" type="line"/>
      <point x="254" y="1060" type="line"/>
      <point x="229" y="220" type="line"/>
      <point x="211" y="220" type="line"/>
      <point x="206" y="1420" type="line"/>
      <point x="10" y="1420" type="line"/>
    </contour>
    <contour>
      <point x="326" y="0" type="line"/>
      <point x="565" y="0" type="line"/>
      <point x="590" y="1420" type="line"/>
      <point x="394" y="1420" type="line"/>
      <point x="389" y="220" type="line"/>
      <point x="371" y="220" type="line"/>
      <point x="347" y="1060" type="line"/>
      <point x="254" y="1060" type="line"/>
      <point x="280" y="802" type="line"/>
      <point x="303" y="802" type="line"/>
    </contour>
  </outline>
</glyph>
<glyph name="X" format="2">
  <advance width="600"/>
  <unicode hex="0058"/>
  <anchor x="300" y="0" name="bottom"/>
  <anchor x="300" y="1420" name="top"/>
  <outline>
    <contour>
      <point x="355" y="0" type="line"/>
      <point x="590" y="0" type="line"/>
      <point x="394" y="763" type="line"/>
      <point x="306" y="854" type="line"/>
      <point x="245" y="1420" type="line"/>
      <point x="10" y="1420" type="line"/>
      <point x="214" y="619" type="line"/>
      <point x="291" y="578" type="line"/>
    </contour>
    <contour>
      <point x="10" y="0" type="line"/>
      <point x="245" y="0" type="line"/>
      <point x="308" y="573" type="line"/>
      <point x="386" y="619" type="line"/>
      <point x="590" y="1420" type="line"/>
      <point x="355" y="1420" type="line"/>
      <point x="293" y="848" type="line"/>
      <point x="207" y="763" type="line"/>
    </contour>
  </outline>
</glyph>
<glyph name="Y" format="2">
  <advance width="600"/>
  <unicode hex="0059"/>
  <anchor x="300" y="0" name="bottom"/>
  <anchor x="300" y="1420" name="top"/>
  <anchor x="-34" y="1420" name="topleft"/>
  <outline>
    <contour>
      <point x="205" y="514" type="line"/>
      <point x="395" y="514" type="line"/>
      <point x="590" y="1420" type="line"/>
      <point x="369" y="1420" type="line"/>
      <point x="302" y="720" type="line"/>
      <point x="298" y="720" type="line"/>
      <point x="231" y="1420" type="line"/>
      <point x="10" y="1420" type="line"/>
    </contour>
    <contour>
      <point x="198" y="0" type="line"/>
      <point x="402" y="0" type="line"/>
      <point x="402" y="700" type="line"/>
      <point x="198" y="700" type="line"/>
    </contour>
  </outline>
</glyph>
<glyph name="Z" format="2">
  <advance width="600"/>
  <unicode hex="005A"/>
  <anchor x="300" y="0" name="bottom"/>
  <anchor x="300" y="710" name="center"/>
  <anchor x="300" y="1420" name="top"/>
  <outline>
    <contour>
      <point x="212" y="68" type="line"/>
      <point x="529" y="1200" type="line"/>
      <point x="381" y="1362" type="line"/>
      <point x="64" y="220" type="line"/>
    </contour>
    <contour>
      <point x="64" y="0" type="line"/>
      <point x="538" y="0" type="line"/>
      <point x="538" y="220" type="line"/>
      <point x="64" y="220" type="line"/>
    </contour>
    <contour>
      <point x="64" y="1200" type="line"/>
      <point x="529" y="1200" type="line"/>
      <point x="529" y="1420" type="line"/>
      <point x="64" y="1420" type="line"/>
    </contour>
  </outline>
</glyph>
<glyph name="bracketleft" format="2">
  <advance width="600"/>
  <unicode hex="005B"/>
  <outline>
    <contour>
      <point x="150" y="-214" type="line"/>
      <point x="355" y="-214" type="line"/>
      <point x="355" y="1634" type="line"/>
      <point x="150" y="1634" type="line"/>
    </contour>
    <contour>
      <point x="325" y="-214" type="line"/>
      <point x="510" y="-214" type="line"/>
      <point x="510" y="6" type="line"/>
      <point x="325" y="6" type="line"/>
    </contour>
    <contour>
      <point x="325" y="1414" type="line"/>
      <point x="510" y="1414" type="line"/>
      <point x="510" y="1634" type="line"/>
      <point x="325" y="1634" type="line"/>
    </contour>
  </outline>
</glyph>
<glyph name="backslash" format="2">
  <advance width="600"/>
  <unicode hex="005C"/>
  <outline>
    <contour>
      <point x="397" y="-190" type="line"/>
      <point x="597" y="-190" type="line"/>
      <point x="237" y="1610" type="line"/>
      <point x="27" y="1610" type="line"/>
    </contour>
  </outline>
</glyph>
<glyph name="bracketright" format="2">
  <advance width="600"/>
  <unicode hex="005D"/>
  <outline>
    <contour>
      <point x="245" y="-214" type="line"/>
      <point x="450" y="-214" type="line"/>
      <point x="450" y="1634" type="line"/>
      <point x="245" y="1634" type="line"/>
    </contour>
    <contour>
      <point x="90" y="-214" type="line"/>
      <point x="275" y="-214" type="line"/>
      <point x="275" y="6" type="line"/>
      <point x="90" y="6" type="line"/>
    </contour>
    <contour>
      <point x="90" y="1414" type="line"/>
      <point x="275" y="1414" type="line"/>
      <point x="275" y="1634" type="line"/>
      <point x="90" y="1634" type="line"/>
    </contour>
  </outline>
</glyph>
<glyph name="asciicircum" format="2">
  <advance width="600"/>
  <unicode hex="005E"/>
  <outline>
    <contour>
      <point x="60" y="820" type="line"/>
      <point x="253" y="820" type="line"/>
      <point x="294" y="1200" type="line"/>
      <point x="306" y="1200" type="line"/>
      <point x="347" y="820" type="line"/>
      <point x="540" y="820" type="line"/>
      <point x="425" y="1420" type="line"/>
      <point x="175" y="1420" type="line"/>
    </contour>
  </outline>
</glyph>
<glyph name="grave" format="2">
  <advance width="600"/>
  <unicode hex="0060"/>
  <outline>
    <contour>
      <point x="330" y="1068" type="line"/>
      <point x="536" y="1068" type="line"/>
      <point x="299" y="1628" type="line"/>
      <point x="25" y="1628" type="line"/>
    </contour>
  </outline>
</glyph>
<glyph name="a" format="2">
  <advance width="600"/>
  <unicode hex="0061"/>
  <anchor x="300" y="0" name="bottom"/>
  <anchor x="547" y="10" name="ogonek"/>
  <anchor x="290" y="1060" name="top"/>
  <outline>
    <contour>
      <point x="381" y="-10" type="line"/>
      <point x="593" y="0" type="line"/>
      <point x="593" y="140" type="line"/>
      <point x="554" y="162" type="line"/>
      <point x="554" y="634" type="line" smooth="yes"/>
      <point x="554" y="902"/>
      <point x="453" y="1062"/>
      <point x="225" y="1067" type="curve" smooth="yes"/>
      <point x="88" y="1070" type="line"/>
      <point x="77" y="850" type="line"/>
      <point x="242" y="843" type="line" smooth="yes"/>
      <point x="319" y="840"/>
      <point x="365" y="780"/>
      <point x="365" y="649" type="curve" smooth="yes"/>
      <point x="365" y="442" type="line"/>
      <point x="367" y="304" type="line"/>
    </contour>
    <contour>
      <point x="198" y="-20" type="curve" smooth="yes"/>
      <point x="295" y="-20"/>
      <point x="353" y="59"/>
      <point x="354" y="256" type="curve"/>
      <point x="330" y="184" type="line"/>
      <point x="375" y="184" type="line"/>
      <point x="365" y="496" type="line"/>
      <point x="365" y="430" type="line"/>
      <point x="365" y="319"/>
      <point x="343" y="200"/>
      <point x="264" y="200" type="curve" smooth="yes"/>
      <point x="229" y="200"/>
      <point x="212" y="236"/>
      <point x="212" y="299" type="curve" smooth="yes"/>
      <point x="212" y="396"/>
      <point x="244" y="447"/>
      <point x="298" y="447" type="curve" smooth="yes"/>
      <point x="325" y="447"/>
      <point x="332" y="447"/>
      <point x="379" y="427" type="curve"/>
      <point x="393" y="630" type="line"/>
      <point x="341" y="655"/>
      <point x="319" y="667"/>
      <point x="266" y="667" type="curve" smooth="yes"/>
      <point x="105" y="667"/>
      <point x="7" y="536"/>
      <point x="7" y="299" type="curve" smooth="yes"/>
      <point x="7" y="96"/>
      <point x="77" y="-20"/>
    </contour>
  </outline>
</glyph>
<glyph name="b" format="2">
  <advance width="600"/>
  <unicode hex="0062"/>
  <anchor x="319" y="0" name="bottom"/>
  <anchor x="167" y="1540" name="top"/>
  <outline>
    <contour>
      <point x="244" y="-20" type="curve" smooth="yes"/>
      <point x="457" y="-20"/>
      <point x="578" y="206"/>
      <point x="578" y="600" type="curve" smooth="yes"/>
      <point x="578" y="906"/>
      <point x="513" y="1080"/>
      <point x="400" y="1080" type="curve" smooth="yes"/>
      <point x="317" y="1080"/>
      <point x="285" y="998"/>
      <point x="277" y="878" type="curve"/>
      <point x="228" y="878" type="line"/>
      <point x="257" y="682" type="line"/>
      <point x="257" y="801"/>
      <point x="275" y="860"/>
      <point x="312" y="860" type="curve" smooth="yes"/>
      <point x="350" y="860"/>
      <point x="373" y="772"/>
      <point x="373" y="615" type="curve" smooth="yes"/>
      <point x="373" y="351"/>
      <point x="333" y="200"/>
      <point x="264" y="200" type="curve" smooth="yes"/>
      <point x="217" y="200"/>
      <point x="167" y="200"/>
      <point x="129" y="234" type="curve"/>
      <point x="59" y="0" type="line"/>
      <point x="121" y="-12"/>
      <point x="181" y="-20"/>
    </contour>
    <contour>
      <point x="59" y="0" type="line"/>
      <point x="257" y="18" type="line"/>
      <point x="259" y="1500" type="line"/>
      <point x="59" y="1500" type="line"/>
    </contour>
  </outline>
</glyph>
<glyph name="c" format="2">
  <advance width="600"/>
  <unicode hex="0063"/>
  <anchor x="325" y="0" name="bottom"/>
  <anchor x="325" y="1060" name="top"/>
  <outline>
    <contour>
      <point x="382" y="-20" type="curve" smooth="yes"/>
      <point x="437" y="-20"/>
      <point x="490" y="-14"/>
      <point x="539" y="5" type="curve"/>
      <point x="521" y="223" type="line"/>
      <point x="483" y="207"/>
      <point x="446" y="199"/>
      <point x="408" y="199" type="curve" smooth="yes"/>
      <point x="302" y="199"/>
      <point x="245" y="317"/>
      <point x="245" y="542" type="curve" smooth="yes"/>
      <point x="245" y="746"/>
      <point x="284" y="860"/>
      <point x="350" y="860" type="curve" smooth="yes"/>
      <point x="392" y="860"/>
      <point x="422" y="835"/>
      <point x="443" y="780" type="curve"/>
      <point x="574" y="914" type="line"/>
      <point x="524" y="1028"/>
      <point x="453" y="1080"/>
      <point x="354" y="1080" type="curve" smooth="yes"/>
      <point x="153" y="1080"/>
      <point x="40" y="877"/>
      <point x="40" y="532" type="curve" smooth="yes"/>
      <point x="40" y="170"/>
      <point x="160" y="-20"/>
    </contour>
  </outline>
</glyph>
<glyph name="d" format="2">
  <advance width="600"/>
  <unicode hex="0064"/>
  <anchor x="272" y="0" name="bottom"/>
  <anchor x="300" y="530" name="center"/>
  <anchor x="435" y="1500" name="top"/>
  <anchor x="566" y="1060" name="topright"/>
  <outline>
    <contour>
      <point x="219" y="-20" type="curve" smooth="yes"/>
      <point x="276" y="-20"/>
      <point x="319" y="43"/>
      <point x="326" y="167" type="curve"/>
      <point x="375" y="167" type="line"/>
      <point x="341" y="529" type="line"/>
      <point x="341" y="302"/>
      <point x="338" y="200"/>
      <point x="289" y="200" type="curve" smooth="yes"/>
      <point x="252" y="200"/>
      <point x="233" y="313"/>
      <point x="233" y="529" type="curve" smooth="yes"/>
      <point x="233" y="739"/>
      <point x="256" y="860"/>
      <point x="290" y="860" type="curve" smooth="yes"/>
      <point x="325" y="860"/>
      <point x="341" y="758"/>
      <point x="341" y="529" type="curve"/>
      <point x="370" y="893" type="line"/>
      <point x="322" y="893" type="line"/>
      <point x="313" y="1015"/>
      <point x="289" y="1080"/>
      <point x="219" y="1080" type="curve" smooth="yes"/>
      <point x="101" y="1080"/>
      <point x="28" y="879"/>
      <point x="28" y="529" type="curve" smooth="yes"/>
      <point x="28" y="174"/>
      <point x="102" y="-20"/>
    </contour>
    <contour>
      <point x="365" y="-10" type="line"/>
      <point x="541" y="0" type="line"/>
      <point x="541" y="1500" type="line"/>
      <point x="341" y="1500" type="line"/>
      <point x="341" y="200" type="line"/>
    </contour>
  </outline>
</glyph>
<glyph name="e" format="2">
  <advance width="600"/>
  <unicode hex="0065"/>
  <anchor x="309" y="0" name="bottom"/>
  <anchor x="511" y="10" name="ogonek"/>
  <anchor x="300" y="1060" name="top"/>
  <outline>
    <contour>
      <point x="366" y="-20" type="curve" smooth="yes"/>
      <point x="396" y="-20"/>
      <point x="442" y="-16"/>
      <point x="511" y="8" type="curve"/>
      <point x="495" y="228" type="line"/>
      <point x="457" y="210"/>
      <point x="426" y="200"/>
      <point x="388" y="200" type="curve" smooth="yes"/>
      <point x="292" y="200"/>
      <point x="239" y="317"/>
      <point x="239" y="542" type="curve" smooth="yes"/>
      <point x="239" y="760"/>
      <point x="257" y="860"/>
      <point x="296" y="860" type="curve" smooth="yes"/>
      <point x="341" y="860"/>
      <point x="361" y="782"/>
      <point x="361" y="613" type="curve"/>
      <point x="173" y="613" type="line"/>
      <point x="173" y="423" type="line"/>
      <point x="553" y="423" type="line"/>
      <point x="555" y="466"/>
      <point x="556" y="510"/>
      <point x="556" y="560" type="curve" smooth="yes"/>
      <point x="556" y="917"/>
      <point x="474" y="1080"/>
      <point x="295" y="1080" type="curve" smooth="yes"/>
      <point x="116" y="1080"/>
      <point x="34" y="908"/>
      <point x="34" y="532" type="curve" smooth="yes"/>
      <point x="34" y="176"/>
      <point x="154" y="-20"/>
    </contour>
  </outline>
</glyph>
<glyph name="f" format="2">
  <advance width="600"/>
  <unicode hex="0066"/>
  <anchor x="251" y="0" name="bottom"/>
  <anchor x="375" y="1500" name="top"/>
  <outline>
    <contour>
      <point x="152" y="0" type="line"/>
      <point x="352" y="0" type="line"/>
      <point x="352" y="1091" type="line" smooth="yes"/>
      <point x="352" y="1227"/>
      <point x="392" y="1290"/>
      <point x="480" y="1290" type="curve" smooth="yes"/>
      <point x="511" y="1290"/>
      <point x="544" y="1286"/>
      <point x="588" y="1276" type="curve"/>
      <point x="603" y="1500" type="line"/>
      <point x="563" y="1514"/>
      <point x="527" y="1520"/>
      <point x="483" y="1520" type="curve" smooth="yes"/>
      <point x="256" y="1520"/>
      <point x="152" y="1382"/>
      <point x="152" y="1081" type="curve" smooth="yes"/>
    </contour>
    <contour>
      <point x="-7" y="629" type="line"/>
      <point x="562" y="629" type="line"/>
      <point x="562" y="849" type="line"/>
      <point x="-7" y="849" type="line"/>
    </contour>
  </outline>
</glyph>
<glyph name="g" format="2">
  <advance width="600"/>
  <unicode hex="0067"/>
  <anchor x="272" y="-420" name="bottom"/>
  <anchor x="281" y="1060" name="top"/>
  <outline>
    <contour>
      <point x="93" y="-478" type="line"/>
      <point x="168" y="-473" type="line" smooth="yes"/>
      <point x="427" y="-456"/>
      <point x="541" y="-287"/>
      <point x="541" y="94" type="curve" smooth="yes"/>
      <point x="541" y="1060" type="line"/>
      <point x="353" y="1060" type="line"/>
      <point x="341" y="836" type="line"/>
      <point x="341" y="62" type="line" smooth="yes"/>
      <point x="341" y="-166"/>
      <point x="280" y="-247"/>
      <point x="177" y="-253" type="curve" smooth="yes"/>
      <point x="86" y="-258" type="line"/>
    </contour>
    <contour>
      <point x="219" y="-20" type="curve" smooth="yes"/>
      <point x="276" y="-20"/>
      <point x="319" y="43"/>
      <point x="326" y="167" type="curve"/>
      <point x="375" y="167" type="line"/>
      <point x="341" y="529" type="line"/>
      <point x="341" y="302"/>
      <point x="338" y="200"/>
      <point x="289" y="200" type="curve" smooth="yes"/>
      <point x="252" y="200"/>
      <point x="233" y="313"/>
      <point x="233" y="529" type="curve" smooth="yes"/>
      <point x="233" y="739"/>
      <point x="256" y="860"/>
      <point x="290" y="860" type="curve" smooth="yes"/>
      <point x="325" y="860"/>
      <point x="341" y="758"/>
      <point x="341" y="529" type="curve"/>
      <point x="375" y="893" type="line"/>
      <point x="327" y="893" type="line"/>
      <point x="318" y="1015"/>
      <point x="292" y="1080"/>
      <point x="219" y="1080" type="curve" smooth="yes"/>
      <point x="101" y="1080"/>
      <point x="28" y="879"/>
      <point x="28" y="529" type="curve" smooth="yes"/>
      <point x="28" y="174"/>
      <point x="102" y="-20"/>
    </contour>
  </outline>
</glyph>
<glyph name="i" format="2">
  <advance width="600"/>
  <unicode hex="0069"/>
  <anchor x="334" y="0" name="bottom"/>
  <anchor x="324" y="1480" name="top"/>
  <outline>
    <contour>
      <point x="234" y="0" type="line"/>
      <point x="434" y="0" type="line"/>
      <point x="434" y="1000" type="line"/>
      <point x="234" y="1000" type="line"/>
    </contour>
    <contour>
      <point x="67" y="0" type="line"/>
      <point x="243" y="0" type="line"/>
      <point x="243" y="220" type="line"/>
      <point x="67" y="220" type="line"/>
    </contour>
    <contour>
      <point x="425" y="0" type="line"/>
      <point x="563" y="0" type="line"/>
      <point x="563" y="220" type="line"/>
      <point x="425" y="220" type="line"/>
    </contour>
    <contour>
      <point x="96" y="840" type="line"/>
      <point x="434" y="840" type="line"/>
      <point x="434" y="1060" type="line"/>
      <point x="96" y="1060" type="line"/>
    </contour>
    <contour>
      <point x="314" y="1255" type="curve" smooth="yes"/>
      <point x="401" y="1255"/>
      <point x="461" y="1314"/>
      <point x="461" y="1402" type="curve" smooth="yes"/>
      <point x="461" y="1489"/>
      <point x="401" y="1549"/>
      <point x="314" y="1549" type="curve" smooth="yes"/>
      <point x="226" y="1549"/>
      <point x="167" y="1489"/>
      <point x="167" y="1402" type="curve" smooth="yes"/>
      <point x="167" y="1314"/>
      <point x="226" y="1255"/>
    </contour>
  </outline>
</glyph>
<glyph name="j" format="2">
  <advance width="600"/>
  <unicode hex="006A"/>
  <anchor x="286" y="-480" name="bottom"/>
  <anchor x="367" y="1480" name="top"/>
  <outline>
    <contour>
      <point x="80" y="-480" type="line"/>
      <point x="145" y="-468" type="line" smooth="yes"/>
      <point x="401" y="-421"/>
      <point x="490" y="-292"/>
      <point x="490" y="33" type="curve" smooth="yes"/>
      <point x="490" y="384" type="line"/>
      <point x="289" y="384" type="line"/>
      <point x="289" y="1" type="line" smooth="yes"/>
      <point x="289" y="-165"/>
      <point x="254" y="-228"/>
      <point x="151" y="-246" type="curve" smooth="yes"/>
      <point x="74" y="-260" type="line"/>
    </contour>
    <contour>
      <point x="289" y="350" type="line"/>
      <point x="490" y="350" type="line"/>
      <point x="490" y="1060" type="line"/>
      <point x="289" y="1060" type="line"/>
    </contour>
    <contour>
      <point x="108" y="840" type="line"/>
      <point x="294" y="840" type="line"/>
      <point x="294" y="1060" type="line"/>
      <point x="108" y="1060" type="line"/>
    </contour>
    <contour>
      <point x="369" y="1255" type="curve" smooth="yes"/>
      <point x="456" y="1255"/>
      <point x="516" y="1314"/>
      <point x="516" y="1402" type="curve" smooth="yes"/>
      <point x="516" y="1489"/>
      <point x="456" y="1549"/>
      <point x="369" y="1549" type="curve" smooth="yes"/>
      <point x="281" y="1549"/>
      <point x="222" y="1489"/>
      <point x="222" y="1402" type="curve" smooth="yes"/>
      <point x="222" y="1314"/>
      <point x="281" y="1255"/>
    </contour>
  </outline>
</glyph>
<glyph name="k" format="2">
  <advance width="600"/>
  <unicode hex="006B"/>
  <anchor x="310" y="0" name="bottom"/>
  <anchor x="154" y="1500" name="top"/>
  <outline>
    <contour>
      <point x="186" y="377" type="line"/>
      <point x="275" y="377" type="line" smooth="yes"/>
      <point x="434" y="377"/>
      <point x="532" y="603"/>
      <point x="558" y="1060" type="curve"/>
      <point x="358" y="1060" type="line"/>
      <point x="345" y="728"/>
      <point x="314" y="607"/>
      <point x="240" y="607" type="curve" smooth="yes"/>
      <point x="186" y="607" type="line"/>
    </contour>
    <contour>
      <point x="50" y="0" type="line"/>
      <point x="250" y="0" type="line"/>
      <point x="250" y="1500" type="line"/>
      <point x="50" y="1500" type="line"/>
    </contour>
    <contour>
      <point x="363" y="0" type="line"/>
      <point x="592" y="0" type="line"/>
      <point x="422" y="598" type="line"/>
      <point x="249" y="516" type="line"/>
    </contour>
  </outline>
</glyph>
<glyph name="l" format="2">
  <advance width="600"/>
  <unicode hex="006C"/>
  <anchor x="340" y="0" name="bottom"/>
  <anchor x="260" y="784" name="center"/>
  <anchor x="258" y="1500" name="top"/>
  <anchor x="485" y="1500" name="topright"/>
  <outline>
    <contour>
      <point x="377" y="-20" type="curve" smooth="yes"/>
      <point x="440" y="-20"/>
      <point x="502" y="-12"/>
      <point x="558" y="2" type="curve"/>
      <point x="536" y="227" type="line"/>
      <point x="493" y="215"/>
      <point x="459" y="209"/>
      <point x="439" y="209" type="curve" smooth="yes"/>
      <point x="389" y="209"/>
      <point x="363" y="240"/>
      <point x="363" y="298" type="curve" smooth="yes"/>
      <point x="363" y="1500" type="line"/>
      <point x="163" y="1500" type="line"/>
      <point x="163" y="260" type="line" smooth="yes"/>
      <point x="163" y="76"/>
      <point x="236" y="-20"/>
    </contour>
    <contour>
      <point x="28" y="1280" type="line"/>
      <point x="172" y="1280" type="line"/>
      <point x="172" y="1500" type="line"/>
      <point x="28" y="1500" type="line"/>
    </contour>
  </outline>
</glyph>
<glyph name="m" format="2">
  <advance width="600"/>
  <unicode hex="006D"/>
  <anchor x="300" y="0" name="bottom"/>
  <anchor x="300" y="1060" name="top"/>
  <outline>
    <contour>
      <point x="398" y="0" type="line"/>
      <point x="585" y="0" type="line"/>
      <point x="585" y="870" type="line" smooth="yes"/>
      <point x="585" y="1008"/>
      <point x="547" y="1080"/>
      <point x="475" y="1080" type="curve" smooth="yes"/>
      <point x="413" y="1080"/>
      <point x="379" y="1028"/>
      <point x="375" y="928" type="curve"/>
      <point x="333" y="928" type="line"/>
      <point x="344" y="780" type="line"/>
      <point x="344" y="812"/>
      <point x="353" y="828"/>
      <point x="371" y="828" type="curve" smooth="yes"/>
      <point x="389" y="828"/>
      <point x="398" y="815"/>
      <point x="398" y="789" type="curve" smooth="yes"/>
    </contour>
    <contour>
      <point x="15" y="0" type="line"/>
      <point x="203" y="0" type="line"/>
      <point x="203" y="826" type="line"/>
      <point x="188" y="1060" type="line"/>
      <point x="15" y="1060" type="line"/>
    </contour>
    <contour>
      <point x="260" y="0" type="line"/>
      <point x="344" y="0" type="line"/>
      <point x="344" y="870" type="line"/>
      <point x="359" y="921" type="line"/>
      <point x="359" y="1025"/>
      <point x="335" y="1080"/>
      <point x="289" y="1080" type="curve" smooth="yes"/>
      <point x="243" y="1080"/>
      <point x="217" y="1028"/>
      <point x="212" y="928" type="curve"/>
      <point x="172" y="928" type="line"/>
      <point x="203" y="780" type="line"/>
      <point x="203" y="812"/>
      <point x="213" y="828"/>
      <point x="233" y="828" type="curve" smooth="yes"/>
      <point x="251" y="828"/>
      <point x="260" y="815"/>
      <point x="260" y="789" type="curve" smooth="yes"/>
    </contour>
  </outline>
</glyph>
<glyph name="n" format="2">
  <advance width="600"/>
  <unicode hex="006E"/>
  <anchor x="300" y="0" name="bottom"/>
  <anchor x="296" y="1060" name="top"/>
  <outline>
    <contour>
      <point x="350" y="0" type="line"/>
      <point x="550" y="0" type="line"/>
      <point x="550" y="831" type="line" smooth="yes"/>
      <point x="550" y="1002"/>
      <point x="507" y="1080"/>
      <point x="413" y="1080" type="curve" smooth="yes"/>
      <point x="328" y="1080"/>
      <point x="280" y="1025"/>
      <point x="262" y="904" type="curve"/>
      <point x="224" y="904" type="line"/>
      <point x="250" y="698" type="line"/>
      <point x="250" y="808"/>
      <point x="271" y="860"/>
      <point x="309" y="860" type="curve" smooth="yes"/>
      <point x="336" y="860"/>
      <point x="350" y="832"/>
      <point x="350" y="777" type="curve" smooth="yes"/>
    </contour>
    <contour>
      <point x="50" y="0" type="line"/>
      <point x="250" y="0" type="line"/>
      <point x="250" y="873" type="line"/>
      <point x="230" y="1060" type="line"/>
      <point x="50" y="1060" type="line"/>
    </contour>
  </outline>
</glyph>
<glyph name="o" format="2">
  <advance width="600"/>
  <unicode hex="006F"/>
  <anchor x="300" y="0" name="bottom"/>
  <anchor x="300" y="530" name="center"/>
  <anchor x="300" y="10" name="ogonek"/>
  <anchor x="300" y="1060" name="top"/>
  <anchor x="497" y="1060" name="topright"/>
  <outline>
    <contour>
      <point x="300" y="-20" type="curve" smooth="yes"/>
      <point x="478" y="-20"/>
      <point x="560" y="153"/>
      <point x="560" y="530" type="curve" smooth="yes"/>
      <point x="560" y="907"/>
      <point x="478" y="1080"/>
      <point x="300" y="1080" type="curve" smooth="yes"/>
      <point x="122" y="1080"/>
      <point x="40" y="907"/>
      <point x="40" y="530" type="curve" smooth="yes"/>
      <point x="40" y="153"/>
      <point x="122" y="-20"/>
    </contour>
    <contour>
      <point x="300" y="200" type="curve" smooth="yes"/>
      <point x="262" y="200"/>
      <point x="245" y="303"/>
      <point x="245" y="530" type="curve" smooth="yes"/>
      <point x="245" y="757"/>
      <point x="262" y="860"/>
      <point x="300" y="860" type="curve" smooth="yes"/>
      <point x="338" y="860"/>
      <point x="355" y="757"/>
      <point x="355" y="530" type="curve" smooth="yes"/>
      <point x="355" y="303"/>
      <point x="338" y="200"/>
    </contour>
  </outline>
</glyph>
<glyph name="p" format="2">
  <advance width="600"/>
  <unicode hex="0070"/>
  <anchor x="324" y="-460" name="bottom"/>
  <anchor x="324" y="1060" name="top"/>
  <outline>
    <contour>
      <point x="396" y="-20" type="curve" smooth="yes"/>
      <point x="506" y="-20"/>
      <point x="575" y="174"/>
      <point x="575" y="529" type="curve" smooth="yes"/>
      <point x="575" y="879"/>
      <point x="507" y="1080"/>
      <point x="396" y="1080" type="curve" smooth="yes"/>
      <point x="312" y="1080"/>
      <point x="282" y="1021"/>
      <point x="270" y="903" type="curve"/>
      <point x="230" y="903" type="line"/>
      <point x="259" y="529" type="line"/>
      <point x="259" y="758"/>
      <point x="275" y="860"/>
      <point x="310" y="860" type="curve" smooth="yes"/>
      <point x="346" y="860"/>
      <point x="370" y="739"/>
      <point x="370" y="529" type="curve" smooth="yes"/>
      <point x="370" y="313"/>
      <point x="350" y="200"/>
      <point x="311" y="200" type="curve" smooth="yes"/>
      <point x="262" y="200"/>
      <point x="259" y="302"/>
      <point x="259" y="529" type="curve"/>
      <point x="225" y="157" type="line"/>
      <point x="274" y="157" type="line"/>
      <point x="282" y="39"/>
      <point x="331" y="-20"/>
    </contour>
    <contour>
      <point x="59" y="-460" type="line"/>
      <point x="259" y="-460" type="line"/>
      <point x="259" y="871" type="line"/>
      <point x="250" y="1060" type="line"/>
      <point x="59" y="1060" type="line"/>
    </contour>
  </outline>
</glyph>
<glyph name="q" format="2">
  <advance width="600"/>
  <unicode hex="0071"/>
  <anchor x="277" y="-460" name="bottom"/>
  <anchor x="277" y="1060" name="top"/>
  <outline>
    <contour>
      <point x="219" y="-20" type="curve" smooth="yes"/>
      <point x="276" y="-20"/>
      <point x="319" y="43"/>
      <point x="326" y="167" type="curve"/>
      <point x="375" y="167" type="line"/>
      <point x="341" y="529" type="line"/>
      <point x="341" y="302"/>
      <point x="338" y="200"/>
      <point x="289" y="200" type="curve" smooth="yes"/>
      <point x="252" y="200"/>
      <point x="233" y="313"/>
      <point x="233" y="529" type="curve" smooth="yes"/>
      <point x="233" y="739"/>
      <point x="256" y="860"/>
      <point x="290" y="860" type="curve" smooth="yes"/>
      <point x="325" y="860"/>
      <point x="341" y="758"/>
      <point x="341" y="529" type="curve"/>
      <point x="370" y="893" type="line"/>
      <point x="322" y="893" type="line"/>
      <point x="313" y="1015"/>
      <point x="289" y="1080"/>
      <point x="219" y="1080" type="curve" smooth="yes"/>
      <point x="101" y="1080"/>
      <point x="28" y="879"/>
      <point x="28" y="529" type="curve" smooth="yes"/>
      <point x="28" y="174"/>
      <point x="102" y="-20"/>
    </contour>
    <contour>
      <point x="341" y="-460" type="line"/>
      <point x="541" y="-460" type="line"/>
      <point x="541" y="1060" type="line"/>
      <point x="351" y="1060" type="line"/>
      <point x="341" y="839" type="line"/>
    </contour>
  </outline>
</glyph>
<glyph name="r" format="2">
  <advance width="600"/>
  <unicode hex="0072"/>
  <anchor x="208" y="0" name="bottom"/>
  <anchor x="300" y="1060" name="top"/>
  <outline>
    <contour>
      <point x="304" y="556" type="line"/>
      <point x="304" y="821"/>
      <point x="323" y="860"/>
      <point x="359" y="860" type="curve" smooth="yes"/>
      <point x="390" y="860"/>
      <point x="402" y="800"/>
      <point x="402" y="649" type="curve"/>
      <point x="600" y="649" type="line"/>
      <point x="600" y="957"/>
      <point x="553" y="1080"/>
      <point x="437" y="1080" type="curve" smooth="yes"/>
      <point x="360" y="1080"/>
      <point x="318" y="1025"/>
      <point x="305" y="903" type="curve"/>
      <point x="264" y="903" type="line"/>
    </contour>
    <contour>
      <point x="5" y="0" type="line"/>
      <point x="417" y="0" type="line"/>
      <point x="417" y="220" type="line"/>
      <point x="5" y="220" type="line"/>
    </contour>
    <contour>
      <point x="114" y="0" type="line"/>
      <point x="303" y="0" type="line"/>
      <point x="304" y="786" type="line"/>
      <point x="275" y="1060" type="line"/>
      <point x="113" y="1060" type="line"/>
    </contour>
    <contour>
      <point x="27" y="840" type="line"/>
      <point x="290" y="840" type="line"/>
      <point x="273" y="1060" type="line"/>
      <point x="27" y="1060" type="line"/>
    </contour>
  </outline>
</glyph>
<glyph name="s" format="2">
  <advance width="600"/>
  <unicode hex="0073"/>
  <anchor x="296" y="0" name="bottom"/>
  <anchor x="313" y="1060" name="top"/>
  <outline>
    <contour>
      <point x="266" y="-20" type="curve" smooth="yes"/>
      <point x="435" y="-20"/>
      <point x="524" y="71"/>
      <point x="524" y="245" type="curve" smooth="yes"/>
      <point x="524" y="316"/>
      <point x="491" y="418"/>
      <point x="432" y="512" type="curve" smooth="yes"/>
      <point x="351" y="642" type="line" smooth="yes"/>
      <point x="315" y="699"/>
      <point x="289" y="759"/>
      <point x="289" y="797" type="curve" smooth="yes"/>
      <point x="289" y="841"/>
      <point x="305" y="860"/>
      <point x="344" y="860" type="curve" smooth="yes"/>
      <point x="386" y="860"/>
      <point x="431" y="855"/>
      <point x="494" y="841" type="curve"/>
      <point x="511" y="1060" type="line"/>
      <point x="463" y="1073"/>
      <point x="410" y="1080"/>
      <point x="357" y="1080" type="curve" smooth="yes"/>
      <point x="178" y="1080"/>
      <point x="84" y="985"/>
      <point x="84" y="802" type="curve" smooth="yes"/>
      <point x="84" y="729"/>
      <point x="110" y="641"/>
      <point x="155" y="563" type="curve" smooth="yes"/>
      <point x="251" y="397" type="line" smooth="yes"/>
      <point x="286" y="337"/>
      <point x="319" y="285"/>
      <point x="319" y="255" type="curve" smooth="yes"/>
      <point x="319" y="217"/>
      <point x="306" y="201"/>
      <point x="276" y="201" type="curve" smooth="yes"/>
      <point x="226" y="201"/>
      <point x="174" y="212"/>
      <point x="95" y="239" type="curve"/>
      <point x="77" y="15" type="line"/>
      <point x="123" y="-8"/>
      <point x="188" y="-20"/>
    </contour>
  </outline>
</glyph>
<glyph name="t" format="2">
  <advance width="600"/>
  <unicode hex="0074"/>
  <anchor x="334" y="0" name="bottom"/>
  <anchor x="220" y="570" name="center"/>
  <anchor x="427" y="1180" name="top"/>
  <anchor x="546" y="1060" name="topright"/>
  <outline>
    <contour>
      <point x="426" y="-20" type="curve" smooth="yes"/>
      <point x="482" y="-20"/>
      <point x="524" y="-13"/>
      <point x="562" y="4" type="curve"/>
      <point x="546" y="220" type="line"/>
      <point x="514" y="208"/>
      <point x="480" y="200"/>
      <point x="436" y="200" type="curve" smooth="yes"/>
      <point x="346" y="200"/>
      <point x="316" y="281"/>
      <point x="316" y="468" type="curve" smooth="yes"/>
      <point x="316" y="580" type="line"/>
      <point x="116" y="580" type="line"/>
      <point x="116" y="442" type="line" smooth="yes"/>
      <point x="116" y="120"/>
      <point x="202" y="-20"/>
    </contour>
    <contour>
      <point x="116" y="517" type="line"/>
      <point x="316" y="517" type="line"/>
      <point x="316" y="1380" type="line"/>
      <point x="116" y="1380" type="line"/>
    </contour>
    <contour>
      <point x="8" y="840" type="line"/>
      <point x="542" y="840" type="line"/>
      <point x="542" y="1060" type="line"/>
      <point x="8" y="1060" type="line"/>
    </contour>
  </outline>
</glyph>
<glyph name="u" format="2">
  <advance width="600"/>
  <unicode hex="0075"/>
  <anchor x="279" y="0" name="bottom"/>
  <anchor x="541" y="10" name="ogonek"/>
  <anchor x="290" y="1060" name="top"/>
  <anchor x="561" y="1060" name="topright"/>
  <outline>
    <contour>
      <point x="185" y="-20" type="curve" smooth="yes"/>
      <point x="260" y="-20"/>
      <point x="301" y="47"/>
      <point x="318" y="193" type="curve"/>
      <point x="367" y="193" type="line"/>
      <point x="339" y="476" type="line"/>
      <point x="339" y="302"/>
      <point x="321" y="237"/>
      <point x="287" y="237" type="curve" smooth="yes"/>
      <point x="261" y="237"/>
      <point x="245" y="266"/>
      <point x="245" y="316" type="curve" smooth="yes"/>
      <point x="245" y="1060" type="line"/>
      <point x="45" y="1060" type="line"/>
      <point x="45" y="249" type="line" smooth="yes"/>
      <point x="45" y="65"/>
      <point x="89" y="-20"/>
    </contour>
    <contour>
      <point x="349" y="-10" type="line"/>
      <point x="600" y="0" type="line"/>
      <point x="600" y="140" type="line"/>
      <point x="539" y="162" type="line"/>
      <point x="539" y="350" type="line"/>
      <point x="339" y="349" type="line"/>
      <point x="337" y="244" type="line"/>
    </contour>
    <contour>
      <point x="339" y="300" type="line"/>
      <point x="539" y="280" type="line"/>
      <point x="539" y="1060" type="line"/>
      <point x="339" y="1060" type="line"/>
    </contour>
  </outline>
</glyph>
<glyph name="v" format="2">
  <advance width="600"/>
  <unicode hex="0076"/>
  <anchor x="300" y="0" name="bottom"/>
  <anchor x="304" y="1060" name="top"/>
  <outline>
    <contour>
      <point x="155" y="0" type="line"/>
      <point x="445" y="0" type="line"/>
      <point x="590" y="1060" type="line"/>
      <point x="380" y="1060" type="line"/>
      <point x="306" y="220" type="line"/>
      <point x="293" y="220" type="line"/>
      <point x="220" y="1060" type="line"/>
      <point x="10" y="1060" type="line"/>
    </contour>
  </outline>
</glyph>
<glyph name="w" format="2">
  <advance width="600"/>
  <unicode hex="0077"/>
  <anchor x="295" y="0" name="bottom"/>
  <anchor x="295" y="1060" name="top"/>
  <outline>
    <contour>
      <point x="335" y="0" type="line"/>
      <point x="558" y="0" type="line"/>
      <point x="595" y="1060" type="line"/>
      <point x="410" y="1060" type="line"/>
      <point x="396" y="220" type="line"/>
      <point x="375" y="220" type="line"/>
      <point x="347" y="1060" type="line"/>
      <point x="268" y="1060" type="line"/>
      <point x="297" y="840" type="line"/>
      <point x="313" y="840" type="line"/>
    </contour>
    <contour>
      <point x="42" y="0" type="line"/>
      <point x="265" y="0" type="line"/>
      <point x="287" y="840" type="line"/>
      <point x="303" y="840" type="line"/>
      <point x="332" y="1060" type="line"/>
      <point x="253" y="1060" type="line"/>
      <point x="225" y="220" type="line"/>
      <point x="204" y="220" type="line"/>
      <point x="190" y="1060" type="line"/>
      <point x="5" y="1060" type="line"/>
    </contour>
  </outline>
</glyph>
<glyph name="x" format="2">
  <advance width="600"/>
  <unicode hex="0078"/>
  <anchor x="300" y="0" name="bottom"/>
  <anchor x="300" y="1060" name="top"/>
  <outline>
    <contour>
      <point x="21" y="0" type="line"/>
      <point x="239" y="0" type="line"/>
      <point x="304" y="451" type="line"/>
      <point x="393" y="450" type="line"/>
      <point x="579" y="1060" type="line"/>
      <point x="361" y="1060" type="line"/>
      <point x="287" y="607" type="line"/>
      <point x="193" y="592" type="line"/>
    </contour>
    <contour>
      <point x="361" y="0" type="line"/>
      <point x="579" y="0" type="line"/>
      <point x="405" y="592" type="line"/>
      <point x="312" y="603" type="line"/>
      <point x="239" y="1060" type="line"/>
      <point x="21" y="1060" type="line"/>
      <point x="197" y="450" type="line"/>
      <point x="287" y="454" type="line"/>
    </contour>
  </outline>
</glyph>
<glyph name="y" format="2">
  <advance width="600"/>
  <unicode hex="0079"/>
  <anchor x="486" y="0" name="bottom"/>
  <anchor x="308" y="1060" name="top"/>
  <outline>
    <contour>
      <point x="27" y="-480" type="line"/>
      <point x="94" y="-469" type="line" smooth="yes"/>
      <point x="314" y="-433"/>
      <point x="441" y="-293"/>
      <point x="486" y="94" type="curve" smooth="yes"/>
      <point x="599" y="1060" type="line"/>
      <point x="389" y="1060" type="line"/>
      <point x="305" y="144" type="line" smooth="yes"/>
      <point x="281" y="-119"/>
      <point x="219" y="-224"/>
      <point x="81" y="-249" type="curve" smooth="yes"/>
      <point x="20" y="-260" type="line"/>
    </contour>
    <contour>
      <point x="125" y="0" type="line"/>
      <point x="345" y="0" type="line"/>
      <point x="344" y="220" type="line"/>
      <point x="290" y="220" type="line"/>
      <point x="220" y="1060" type="line"/>
      <point x="10" y="1060" type="line"/>
    </contour>
  </outline>
</glyph>
<glyph name="z" format="2">
  <advance width="600"/>
  <unicode hex="007A"/>
  <anchor x="300" y="0" name="bottom"/>
  <anchor x="300" y="530" name="center"/>
  <anchor x="300" y="1060" name="top"/>
  <outline>
    <contour>
      <point x="254" y="98" type="line"/>
      <point x="487" y="840" type="line"/>
      <point x="347" y="958" type="line"/>
      <point x="104" y="220" type="line"/>
    </contour>
    <contour>
      <point x="104" y="0" type="line"/>
      <point x="496" y="0" type="line"/>
      <point x="496" y="220" type="line"/>
      <point x="104" y="220" type="line"/>
    </contour>
    <contour>
      <point x="104" y="840" type="line"/>
      <point x="487" y="840" type="line"/>
      <point x="487" y="1060" type="line"/>
      <point x="104" y="1060" type="line"/>
    </contour>
  </outline>
</glyph>
<glyph name="braceleft" format="2">
  <advance width="600"/>
  <unicode hex="007B"/>
  <outline>
    <contour>
      <point x="425" y="-214" type="curve" smooth="yes"/>
      <point x="469" y="-214"/>
      <point x="495" y="-206"/>
      <point x="520" y="-195" type="curve"/>
      <point x="507" y="28" type="line"/>
      <point x="484" y="21"/>
      <point x="461" y="17"/>
      <point x="443" y="17" type="curve" smooth="yes"/>
      <point x="411" y="17"/>
      <point x="387" y="60"/>
      <point x="401" y="136" type="curve" smooth="yes"/>
      <point x="422" y="251"/>
      <point x="457" y="360"/>
      <point x="457" y="488" type="curve" smooth="yes"/>
      <point x="457" y="615"/>
      <point x="385" y="694"/>
      <point x="270" y="697" type="curve"/>
      <point x="270" y="715" type="line"/>
      <point x="385" y="718"/>
      <point x="457" y="799"/>
      <point x="457" y="942" type="curve" smooth="yes"/>
      <point x="457" y="1069"/>
      <point x="424" y="1183"/>
      <point x="401" y="1304" type="curve" smooth="yes"/>
      <point x="389" y="1363"/>
      <point x="411" y="1395"/>
      <point x="443" y="1395" type="curve" smooth="yes"/>
      <point x="461" y="1395"/>
      <point x="483" y="1390"/>
      <point x="506" y="1383" type="curve"/>
      <point x="520" y="1606" type="line"/>
      <point x="495" y="1618"/>
      <point x="469" y="1626"/>
      <point x="425" y="1626" type="curve" smooth="yes"/>
      <point x="253" y="1626"/>
      <point x="144" y="1534"/>
      <point x="175" y="1365" type="curve" smooth="yes"/>
      <point x="198" y="1236"/>
      <point x="247" y="1112"/>
      <point x="247" y="968" type="curve" smooth="yes"/>
      <point x="247" y="872"/>
      <point x="200" y="817"/>
      <point x="120" y="817" type="curve"/>
      <point x="120" y="595" type="line"/>
      <point x="202" y="595"/>
      <point x="247" y="565"/>
      <point x="247" y="462" type="curve" smooth="yes"/>
      <point x="247" y="327"/>
      <point x="196" y="202"/>
      <point x="175" y="75" type="curve" smooth="yes"/>
      <point x="142" y="-110"/>
      <point x="253" y="-214"/>
    </contour>
  </outline>
</glyph>
<glyph name="braceright" format="2">
  <advance width="600"/>
  <unicode hex="007D"/>
  <outline>
    <contour>
      <point x="175" y="-214" type="curve" smooth="yes"/>
      <point x="347" y="-214"/>
      <point x="458" y="-110"/>
      <point x="425" y="75" type="curve" smooth="yes"/>
      <point x="404" y="202"/>
      <point x="353" y="327"/>
      <point x="353" y="462" type="curve" smooth="yes"/>
      <point x="353" y="565"/>
      <point x="398" y="595"/>
      <point x="480" y="595" type="curve"/>
      <point x="480" y="817" type="line"/>
      <point x="400" y="817"/>
      <point x="353" y="872"/>
      <point x="353" y="968" type="curve" smooth="yes"/>
      <point x="353" y="1112"/>
      <point x="402" y="1236"/>
      <point x="425" y="1365" type="curve" smooth="yes"/>
      <point x="456" y="1534"/>
      <point x="347" y="1626"/>
      <point x="175" y="1626" type="curve" smooth="yes"/>
      <point x="131" y="1626"/>
      <point x="105" y="1618"/>
      <point x="80" y="1606" type="curve"/>
      <point x="94" y="1383" type="line"/>
      <point x="117" y="1390"/>
      <point x="139" y="1395"/>
      <point x="157" y="1395" type="curve" smooth="yes"/>
      <point x="189" y="1395"/>
      <point x="211" y="1363"/>
      <point x="199" y="1304" type="curve" smooth="yes"/>
      <point x="176" y="1183"/>
      <point x="143" y="1069"/>
      <point x="143" y="942" type="curve" smooth="yes"/>
      <point x="143" y="799"/>
      <point x="215" y="718"/>
      <point x="330" y="715" type="curve"/>
      <point x="330" y="697" type="line"/>
      <point x="215" y="694"/>
      <point x="143" y="615"/>
      <point x="143" y="488" type="curve" smooth="yes"/>
      <point x="143" y="360"/>
      <point x="178" y="251"/>
      <point x="199" y="136" type="curve" smooth="yes"/>
      <point x="213" y="60"/>
      <point x="189" y="17"/>
      <point x="157" y="17" type="curve" smooth="yes"/>
      <point x="139" y="17"/>
      <point x="116" y="21"/>
      <point x="93" y="28" type="curve"/>
      <point x="80" y="-195" type="line"/>
      <point x="105" y="-206"/>
      <point x="131" y="-214"/>
    </contour>
  </outline>
</glyph>
<glyph name="asciitilde" format="2">
  <advance width="600"/>
  <unicode hex="007E"/>
  <outline>
    <contour>
      <point x="23" y="473" type="line"/>
      <point x="228" y="473" type="line"/>
      <point x="228" y="559" type="line" smooth="yes"/>
      <point x="228" y="633"/>
      <point x="238" y="665"/>
      <point x="262" y="665" type="curve" smooth="yes"/>
      <point x="280" y="665"/>
      <point x="302" y="632"/>
      <point x="331" y="592" type="curve" smooth="yes"/>
      <point x="361" y="550"/>
      <point x="390" y="527"/>
      <point x="441" y="527" type="curve" smooth="yes"/>
      <point x="536" y="527"/>
      <point x="577" y="613"/>
      <point x="577" y="817" type="curve" smooth="yes"/>
      <point x="577" y="943" type="line"/>
      <point x="373" y="943" type="line"/>
      <point x="373" y="857" type="line" smooth="yes"/>
      <point x="373" y="782"/>
      <point x="366" y="751"/>
      <point x="349" y="751" type="curve" smooth="yes"/>
      <point x="327" y="751"/>
      <point x="317" y="783"/>
      <point x="287" y="825" type="curve" smooth="yes"/>
      <point x="257" y="866"/>
      <point x="226" y="889"/>
      <point x="174" y="889" type="curve" smooth="yes"/>
      <point x="68" y="889"/>
      <point x="23" y="801"/>
      <point x="23" y="599" type="curve" smooth="yes"/>
    </contour>
  </outline>
</glyph>
<glyph name="sterling" format="2">
  <advance width="600"/>
  <unicode hex="00A3"/>
  <outline>
    <contour>
      <point x="42" y="0" type="line"/>
      <point x="211" y="0" type="line"/>
      <point x="189" y="221" type="line"/>
      <point x="284" y="362"/>
      <point x="331" y="486"/>
      <point x="331" y="627" type="curve" smooth="yes"/>
      <point x="331" y="1136" type="line" smooth="yes"/>
      <point x="331" y="1186"/>
      <point x="345" y="1209"/>
      <point x="375" y="1209" type="curve" smooth="yes"/>
      <point x="404" y="1209"/>
      <point x="415" y="1179"/>
      <point x="421" y="1128" type="curve"/>
      <point x="590" y="1185" type="line"/>
      <point x="576" y="1343"/>
      <point x="498" y="1440"/>
      <point x="368" y="1440" type="curve" smooth="yes"/>
      <point x="202" y="1440"/>
      <point x="126" y="1345"/>
      <point x="126" y="1137" type="curve" smooth="yes"/>
      <point x="126" y="627" type="line" smooth="yes"/>
      <point x="126" y="485"/>
      <point x="98" y="362"/>
      <point x="42" y="221" type="curve"/>
    </contour>
    <contour>
      <point x="83" y="0" type="line"/>
      <point x="573" y="0" type="line"/>
      <point x="573" y="221" type="line"/>
      <point x="83" y="221" type="line"/>
    </contour>
    <contour>
      <point x="44" y="540" type="line"/>
      <point x="470" y="540" type="line"/>
      <point x="470" y="760" type="line"/>
      <point x="44" y="760" type="line"/>
    </contour>
  </outline>
</glyph>
<glyph name="yen" format="2">
  <advance width="600"/>
  <unicode hex="00A5"/>
  <anchor x="300" y="0" name="bottom"/>
  <anchor x="300" y="1420" name="top"/>
  <anchor x="-34" y="1420" name="topleft"/>
  <outline>
    <contour>
      <point x="44" y="404" type="line"/>
      <point x="556" y="404" type="line"/>
      <point x="556" y="611" type="line"/>
      <point x="44" y="611" type="line"/>
    </contour>
    <contour>
      <point x="44" y="123" type="line"/>
      <point x="556" y="123" type="line"/>
      <point x="556" y="329" type="line"/>
      <point x="44" y="329" type="line"/>
    </contour>
    <component base="Y"/>
  </outline>
</glyph>
<glyph name="copyright" format="2">
  <advance width="600"/>
  <unicode hex="00A9"/>
  <outline>
    <contour>
      <point x="300" y="15" type="curve" smooth="yes"/>
      <point x="523" y="15"/>
      <point x="651" y="263"/>
      <point x="651" y="695" type="curve" smooth="yes"/>
      <point x="651" y="1146"/>
      <point x="523" y="1405"/>
      <point x="300" y="1405" type="curve" smooth="yes"/>
      <point x="77" y="1405"/>
      <point x="-51" y="1146"/>
      <point x="-51" y="695" type="curve" smooth="yes"/>
      <point x="-51" y="263"/>
      <point x="77" y="15"/>
    </contour>
    <contour>
      <point x="333" y="380" type="curve" smooth="yes"/>
      <point x="364" y="380"/>
      <point x="401" y="385"/>
      <point x="435" y="410" type="curve"/>
      <point x="421" y="608" type="line"/>
      <point x="396" y="591"/>
      <point x="371" y="582"/>
      <point x="347" y="582" type="curve" smooth="yes"/>
      <point x="315" y="582"/>
      <point x="299" y="629"/>
      <point x="299" y="714" type="curve" smooth="yes"/>
      <point x="299" y="792"/>
      <point x="313" y="838"/>
      <point x="339" y="838" type="curve" smooth="yes"/>
      <point x="351" y="838"/>
      <point x="363" y="820"/>
      <point x="368" y="790" type="curve"/>
      <point x="453" y="945" type="line"/>
      <point x="436" y="1003"/>
      <point x="391" y="1040"/>
      <point x="329" y="1040" type="curve" smooth="yes"/>
      <point x="201" y="1040"/>
      <point x="128" y="919"/>
      <point x="128" y="712" type="curve" smooth="yes"/>
      <point x="128" y="498"/>
      <point x="203" y="380"/>
    </contour>
    <contour>
      <point x="300" y="227" type="curve" smooth="yes"/>
      <point x="185" y="227"/>
      <point x="119" y="398"/>
      <point x="119" y="695" type="curve" smooth="yes"/>
      <point x="119" y="1011"/>
      <point x="185" y="1193"/>
      <point x="300" y="1193" type="curve" smooth="yes"/>
      <point x="415" y="1193"/>
      <point x="481" y="1011"/>
      <point x="481" y="695" type="curve" smooth="yes"/>
      <point x="481" y="398"/>
      <point x="415" y="227"/>
    </contour>
  </outline>
</glyph>
<glyph name="registered" format="2">
  <advance width="600"/>
  <unicode hex="00AE"/>
  <outline>
    <contour>
      <point x="300" y="15" type="curve" smooth="yes"/>
      <point x="523" y="15"/>
      <point x="651" y="263"/>
      <point x="651" y="695" type="curve" smooth="yes"/>
      <point x="651" y="1146"/>
      <point x="523" y="1405"/>
      <point x="300" y="1405" type="curve" smooth="yes"/>
      <point x="77" y="1405"/>
      <point x="-51" y="1146"/>
      <point x="-51" y="695" type="curve" smooth="yes"/>
      <point x="-51" y="263"/>
      <point x="77" y="15"/>
    </contour>
    <contour>
      <point x="161" y="396" type="line"/>
      <point x="306" y="396" type="line"/>
      <point x="306" y="1030" type="line"/>
      <point x="161" y="1030" type="line"/>
    </contour>
    <contour>
      <point x="324" y="396" type="line"/>
      <point x="478" y="396" type="line"/>
      <point x="408" y="652" type="line"/>
      <point x="279" y="625" type="line"/>
    </contour>
    <contour>
      <point x="300" y="227" type="curve" smooth="yes"/>
      <point x="185" y="227"/>
      <point x="119" y="398"/>
      <point x="119" y="695" type="curve" smooth="yes"/>
      <point x="119" y="1011"/>
      <point x="185" y="1193"/>
      <point x="300" y="1193" type="curve" smooth="yes"/>
      <point x="415" y="1193"/>
      <point x="481" y="1011"/>
      <point x="481" y="695" type="curve" smooth="yes"/>
      <point x="481" y="398"/>
      <point x="415" y="227"/>
    </contour>
    <contour>
      <point x="276" y="583" type="line"/>
      <point x="313" y="583" type="line" smooth="yes"/>
      <point x="406" y="583"/>
      <point x="459" y="665"/>
      <point x="459" y="808" type="curve" smooth="yes"/>
      <point x="459" y="948"/>
      <point x="406" y="1030"/>
      <point x="313" y="1030" type="curve" smooth="yes"/>
      <point x="265" y="1030" type="line"/>
      <point x="265" y="867" type="line"/>
      <point x="299" y="867" type="line" smooth="yes"/>
      <point x="314" y="867"/>
      <point x="323" y="845"/>
      <point x="323" y="807" type="curve" smooth="yes"/>
      <point x="323" y="769"/>
      <point x="314" y="747"/>
      <point x="299" y="747" type="curve" smooth="yes"/>
      <point x="276" y="747" type="line"/>
    </contour>
  </outline>
</glyph>
<glyph name="degree" format="2">
  <advance width="600"/>
  <unicode hex="00B0"/>
  <outline>
    <contour>
      <point x="300" y="690" type="curve" smooth="yes"/>
      <point x="480" y="690"/>
      <point x="573" y="819"/>
      <point x="573" y="1065" type="curve" smooth="yes"/>
      <point x="573" y="1311"/>
      <point x="480" y="1440"/>
      <point x="300" y="1440" type="curve" smooth="yes"/>
      <point x="120" y="1440"/>
      <point x="27" y="1311"/>
      <point x="27" y="1065" type="curve" smooth="yes"/>
      <point x="27" y="819"/>
      <point x="120" y="690"/>
    </contour>
    <contour>
      <point x="300" y="911" type="curve" smooth="yes"/>
      <point x="259" y="911"/>
      <point x="237" y="963"/>
      <point x="237" y="1065" type="curve" smooth="yes"/>
      <point x="237" y="1167"/>
      <point x="259" y="1220"/>
      <point x="300" y="1220" type="curve" smooth="yes"/>
      <point x="341" y="1220"/>
      <point x="363" y="1167"/>
      <point x="363" y="1065" type="curve" smooth="yes"/>
      <point x="363" y="963"/>
      <point x="341" y="911"/>
    </contour>
  </outline>
</glyph>
<glyph name="multiply" format="2">
  <advance width="600"/>
  <unicode hex="00D7"/>
  <outline>
    <contour>
      <point x="208" y="243" type="line"/>
      <point x="25" y="324" type="line"/>
      <point x="256" y="787" type="line"/>
      <point x="392" y="1133" type="line"/>
      <point x="575" y="1050" type="line"/>
      <point x="346" y="592" type="line"/>
    </contour>
    <contour>
      <point x="392" y="243" type="line"/>
      <point x="253" y="593" type="line"/>
      <point x="25" y="1050" type="line"/>
      <point x="208" y="1133" type="line"/>
      <point x="344" y="787" type="line"/>
      <point x="575" y="324" type="line"/>
    </contour>
  </outline>
</glyph>
<glyph name="divide" format="2">
  <advance width="600"/>
  <unicode hex="00F7"/>
  <outline>
    <contour>
      <point x="40" y="599" type="line"/>
      <point x="560" y="599" type="line"/>
      <point x="560" y="819" type="line"/>
      <point x="40" y="819" type="line"/>
    </contour>
    <component base="period" yOffset="115"/>
    <component base="period" yOffset="979"/>
  </outline>
</glyph>
<glyph name="quoteleft" format="2">
  <advance width="600"/>
  <unicode hex="2018"/>
  <outline>
    <contour>
      <point x="415" y="645" type="curve" smooth="yes"/>
      <point x="510" y="645" type="line"/>
      <point x="510" y="875" type="line"/>
      <point x="445" y="875" type="line" smooth="yes"/>
      <point x="329" y="875"/>
      <point x="276" y="913"/>
      <point x="276" y="997" type="curve" smooth="yes"/>
      <point x="276" y="1052"/>
      <point x="307" y="1113"/>
      <point x="366" y="1174" type="curve" smooth="yes"/>
      <point x="477" y="1288" type="line"/>
      <point x="325" y="1440" type="line"/>
      <point x="226" y="1339" type="line" smooth="yes"/>
      <point x="121" y="1232"/>
      <point x="66" y="1111"/>
      <point x="66" y="987" type="curve" smooth="yes"/>
      <point x="66" y="752"/>
      <point x="176" y="645"/>
    </contour>
  </outline>
</glyph>
<glyph name="quoteright" format="2">
  <advance width="600"/>
  <unicode hex="2019"/>
  <outline>
    <contour>
      <point x="251" y="625" type="line"/>
      <point x="350" y="726" type="line" smooth="yes"/>
      <point x="455" y="833"/>
      <point x="510" y="954"/>
      <point x="510" y="1078" type="curve" smooth="yes"/>
      <point x="510" y="1313"/>
      <point x="400" y="1420"/>
      <point x="161" y="1420" type="curve" smooth="yes"/>
      <point x="66" y="1420" type="line"/>
      <point x="66" y="1190" type="line"/>
      <point x="131" y="1190" type="line" smooth="yes"/>
      <point x="247" y="1190"/>
      <point x="300" y="1152"/>
      <point x="300" y="1068" type="curve" smooth="yes"/>
      <point x="300" y="1013"/>
      <point x="269" y="952"/>
      <point x="210" y="891" type="curve" smooth="yes"/>
      <point x="99" y="777" type="line"/>
    </contour>
  </outline>
</glyph>
<glyph name="quotedblleft" format="2">
  <advance width="600"/>
  <unicode hex="201C"/>
  <outline>
    <contour>
      <point x="508" y="882" type="curve" smooth="yes"/>
      <point x="590" y="882" type="line"/>
      <point x="590" y="1105" type="line"/>
      <point x="528" y="1105" type="line" smooth="yes"/>
      <point x="472" y="1105"/>
      <point x="443" y="1135"/>
      <point x="443" y="1194" type="curve" smooth="yes"/>
      <point x="443" y="1267"/>
      <point x="464" y="1334"/>
      <point x="485" y="1420" type="curve"/>
      <point x="283" y="1440" type="line"/>
      <point x="245" y="1302"/>
      <point x="230" y="1250"/>
      <point x="230" y="1154" type="curve" smooth="yes"/>
      <point x="230" y="974"/>
      <point x="325" y="882"/>
    </contour>
    <contour>
      <point x="288" y="440" type="curve" smooth="yes"/>
      <point x="414" y="440" type="line"/>
      <point x="414" y="663" type="line"/>
      <point x="308" y="663" type="line" smooth="yes"/>
      <point x="252" y="663"/>
      <point x="223" y="693"/>
      <point x="223" y="752" type="curve" smooth="yes"/>
      <point x="223" y="821"/>
      <point x="231" y="865"/>
      <point x="265" y="978" type="curve"/>
      <point x="63" y="998" type="line"/>
      <point x="26" y="859"/>
      <point x="10" y="813"/>
      <point x="10" y="712" type="curve" smooth="yes"/>
      <point x="10" y="532"/>
      <point x="105" y="440"/>
    </contour>
  </outline>
</glyph>
<glyph name="quotedblright" format="2">
  <advance width="600"/>
  <unicode hex="201D"/>
  <outline>
    <contour>
      <point x="537" y="882" type="line"/>
      <point x="574" y="1021"/>
      <point x="590" y="1067"/>
      <point x="590" y="1168" type="curve" smooth="yes"/>
      <point x="590" y="1348"/>
      <point x="495" y="1440"/>
      <point x="312" y="1440" type="curve" smooth="yes"/>
      <point x="186" y="1440" type="line"/>
      <point x="186" y="1217" type="line"/>
      <point x="292" y="1217" type="line" smooth="yes"/>
      <point x="348" y="1217"/>
      <point x="377" y="1187"/>
      <point x="377" y="1128" type="curve" smooth="yes"/>
      <point x="377" y="1059"/>
      <point x="369" y="1015"/>
      <point x="335" y="902" type="curve"/>
    </contour>
    <contour>
      <point x="317" y="440" type="line"/>
      <point x="355" y="578"/>
      <point x="370" y="630"/>
      <point x="370" y="726" type="curve" smooth="yes"/>
      <point x="370" y="906"/>
      <point x="275" y="998"/>
      <point x="92" y="998" type="curve" smooth="yes"/>
      <point x="10" y="998" type="line"/>
      <point x="10" y="775" type="line"/>
      <point x="72" y="775" type="line" smooth="yes"/>
      <point x="128" y="775"/>
      <point x="157" y="745"/>
      <point x="157" y="686" type="curve" smooth="yes"/>
      <point x="157" y="613"/>
      <point x="136" y="546"/>
      <point x="115" y="460" type="curve"/>
    </contour>
  </outline>
</glyph>
<glyph name="bullet" format="2">
  <advance width="600"/>
  <unicode hex="2022"/>
  <outline>
    <contour>
      <point x="300" y="414" type="curve" smooth="yes"/>
      <point x="472" y="414"/>
      <point x="586" y="532"/>
      <point x="586" y="710" type="curve" smooth="yes"/>
      <point x="586" y="888"/>
      <point x="472" y="1006"/>
      <point x="300" y="1006" type="curve" smooth="yes"/>
      <point x="128" y="1006"/>
      <point x="14" y="888"/>
      <point x="14" y="710" type="curve" smooth="yes"/>
      <point x="14" y="532"/>
      <point x="128" y="414"/>
    </contour>
  </outline>
</glyph>
<glyph name="ellipsis" format="2">
  <advance width="600"/>
  <unicode hex="2026"/>
  <outline>
    <contour>
      <point x="187" y="-18" type="curve" smooth="yes"/>
      <point x="288" y="-18"/>
      <point x="369" y="56"/>
      <point x="369" y="146" type="curve" smooth="yes"/>
      <point x="369" y="237"/>
      <point x="288" y="310"/>
      <point x="187" y="310" type="curve" smooth="yes"/>
      <point x="86" y="310"/>
      <point x="5" y="237"/>
      <point x="5" y="146" type="curve" smooth="yes"/>
      <point x="5" y="56"/>
      <point x="86" y="-18"/>
    </contour>
    <contour>
      <point x="413" y="752" type="curve" smooth="yes"/>
      <point x="514" y="752"/>
      <point x="595" y="826"/>
      <point x="595" y="916" type="curve" smooth="yes"/>
      <point x="595" y="1007"/>
      <point x="514" y="1080"/>
      <point x="413" y="1080" type="curve" smooth="yes"/>
      <point x="312" y="1080"/>
      <point x="231" y="1007"/>
      <point x="231" y="916" type="curve" smooth="yes"/>
      <point x="231" y="826"/>
      <point x="312" y="752"/>
    </contour>
    <contour>
      <point x="300" y="367" type="curve" smooth="yes"/>
      <point x="401" y="367"/>
      <point x="482" y="441"/>
      <point x="482" y="531" type="curve" smooth="yes"/>
      <point x="482" y="622"/>
      <point x="401" y="695"/>
      <point x="300" y="695" type="curve" smooth="yes"/>
      <point x="199" y="695"/>
      <point x="118" y="622"/>
      <point x="118" y="531" type="curve" smooth="yes"/>
      <point x="118" y="441"/>
      <point x="199" y="367"/>
    </contour>
  </outline>
</glyph>
<glyph name="euro" format="2">
  <advance width="600"/>
  <unicode hex="20AC"/>
  <outline>
    <contour>
      <point x="394" y="-20" type="curve" smooth="yes"/>
      <point x="456" y="-20"/>
      <point x="518" y="-8"/>
      <point x="577" y="17" type="curve"/>
      <point x="540" y="235" type="line"/>
      <point x="504" y="217"/>
      <point x="470" y="209"/>
      <point x="435" y="209" type="curve" smooth="yes"/>
      <point x="325" y="210"/>
      <point x="267" y="386"/>
      <point x="267" y="722" type="curve" smooth="yes"/>
      <point x="267" y="1028"/>
      <point x="309" y="1188"/>
      <point x="387" y="1188" type="curve" smooth="yes"/>
      <point x="409" y="1188"/>
      <point x="427" y="1169"/>
      <point x="443" y="1127" type="curve"/>
      <point x="597" y="1272" type="line"/>
      <point x="552" y="1387"/>
      <point x="485" y="1440"/>
      <point x="381" y="1440" type="curve" smooth="yes"/>
      <point x="168" y="1440"/>
      <point x="57" y="1190"/>
      <point x="57" y="712" type="curve" smooth="yes"/>
      <point x="57" y="231"/>
      <point x="173" y="-20"/>
    </contour>
    <contour>
      <point x="16" y="438" type="line"/>
      <point x="462" y="438" type="line"/>
      <point x="462" y="646" type="line"/>
      <point x="16" y="646" type="line"/>
    </contour>
    <contour>
      <point x="16" y="764" type="line"/>
      <point x="462" y="764" type="line"/>
      <point x="462" y="972" type="line"/>
      <point x="16" y="972" type="line"/>
    </contour>
  </outline>
</glyph>
<glyph name="trademark" format="2">
  <advance width="600"/>
  <unicode hex="2122"/>
  <outline>
    <contour>
      <point x="51" y="774" type="line"/>
      <point x="172" y="774" type="line"/>
      <point x="172" y="1420" type="line"/>
      <point x="51" y="1420" type="line"/>
    </contour>
    <contour>
      <point x="0" y="1258" type="line"/>
      <point x="253" y="1258" type="line"/>
      <point x="253" y="1420" type="line"/>
      <point x="0" y="1420" type="line"/>
    </contour>
    <contour>
      <point x="411" y="1002" type="line"/>
      <point x="446" y="1002" type="line"/>
      <point x="468" y="1218" type="line"/>
      <point x="503" y="1218" type="line"/>
      <point x="503" y="1420" type="line"/>
      <point x="447" y="1420" type="line"/>
      <point x="425" y="1255" type="line"/>
      <point x="421" y="1255" type="line"/>
    </contour>
    <contour>
      <point x="229" y="774" type="line"/>
      <point x="350" y="774" type="line"/>
      <point x="350" y="1420" type="line"/>
      <point x="229" y="1420" type="line"/>
    </contour>
    <contour>
      <point x="398" y="1002" type="line"/>
      <point x="427" y="1002" type="line"/>
      <point x="422" y="1255" type="line"/>
      <point x="420" y="1255" type="line"/>
      <point x="397" y="1420" type="line"/>
      <point x="333" y="1420" type="line"/>
      <point x="333" y="1218" type="line"/>
      <point x="369" y="1218" type="line"/>
    </contour>
    <contour>
      <point x="485" y="774" type="line"/>
      <point x="600" y="774" type="line"/>
      <point x="600" y="1420" type="line"/>
      <point x="485" y="1420" type="line"/>
    </contour>
  </outline>
</glyph>
<glyph name=".notdef" format="2">
  <advance width="600"/>
  <outline>
    <contour>
      <point x="354" y="0" type="line"/>
      <point x="559" y="0" type="line"/>
      <point x="559" y="1420" type="line"/>
      <point x="354" y="1420" type="line"/>
    </contour>
    <contour>
      <point x="41" y="0" type="line"/>
      <point x="559" y="0" type="line"/>
      <point x="559" y="220" type="line"/>
      <point x="41" y="220" type="line"/>
    </contour>
    <contour>
      <point x="41" y="0" type="line"/>
      <point x="246" y="0" type="line"/>
      <point x="246" y="1420" type="line"/>
      <point x="41" y="1420" type="line"/>
    </contour>
    <contour>
      <point x="41" y="1200" type="line"/>
      <point x="559" y="1200" type="line"/>
      <point x="559" y="1420" type="line"/>
      <point x="41" y="1420" type="line"/>
    </contour>
  </outline>
</glyph>
<glyph name="cent.BRACKET.varAlt01" format="2">
  <advance width="600"/>
  <outline>
    <contour>
      <point x="244" y="953" type="line"/>
      <point x="449" y="953" type="line"/>
      <point x="449" y="1394" type="line"/>
      <point x="244" y="1394" type="line"/>
    </contour>
    <contour>
      <point x="244" y="-334" type="line"/>
      <point x="449" y="-334" type="line"/>
      <point x="449" y="79" type="line"/>
      <point x="244" y="79" type="line"/>
    </contour>
    <component base="c"/>
  </outline>
</glyph>
<glyph name="dollar.BRACKET.varAlt01" format="2">
  <advance width="600"/>
  <outline>
    <contour>
      <point x="193" y="1303" type="line"/>
      <point x="398" y="1303" type="line"/>
      <point x="398" y="1740" type="line"/>
      <point x="193" y="1740" type="line"/>
    </contour>
    <contour>
      <point x="193" y="-320" type="line"/>
      <point x="398" y="-320" type="line"/>
      <point x="398" y="88" type="line"/>
      <point x="193" y="88" type="line"/>
    </contour>
    <component base="S"/>
  </outline>
</glyph>
